<svg xmlns="http://www.w3.org/2000/svg" xmlns:xlink="http://www.w3.org/1999/xlink" width="64" zoomAndPan="magnify" viewBox="0 0 48 54.75" height="73" preserveAspectRatio="xMidYMid meet" version="1.0"><defs><clipPath id="33400ab477"><path d="M 0.109375 0 L 47.890625 0 L 47.890625 54.5 L 0.109375 54.5 Z M 0.109375 0 " clip-rule="nonzero"/></clipPath><clipPath id="695da8dac5"><path d="M 30.054688 22 L 42.808594 22 L 42.808594 36.597656 L 30.054688 36.597656 Z M 30.054688 22 " clip-rule="nonzero"/></clipPath><clipPath id="12c1208d52"><path d="M 42.726562 24.957031 L 36.414062 22.09375 L 30.097656 24.957031 L 30.097656 36.566406 L 36.414062 33.707031 L 42.726562 36.566406 Z M 42.726562 24.957031 " clip-rule="nonzero"/></clipPath><clipPath id="2e803cc899"><path d="M 0.0546875 0 L 12.808594 0 L 12.808594 14.597656 L 0.0546875 14.597656 Z M 0.0546875 0 " clip-rule="nonzero"/></clipPath><clipPath id="6688efec2b"><path d="M 12.726562 2.957031 L 6.414062 0.09375 L 0.0976562 2.957031 L 0.0976562 14.566406 L 6.414062 11.707031 L 12.726562 14.566406 Z M 12.726562 2.957031 " clip-rule="nonzero"/></clipPath><clipPath id="6ab188163e"><rect x="0" width="13" y="0" height="15"/></clipPath><clipPath id="9a6799f7a9"><path d="M 30.054688 4.621094 L 42.808594 4.621094 L 42.808594 19.222656 L 30.054688 19.222656 Z M 30.054688 4.621094 " clip-rule="nonzero"/></clipPath><clipPath id="d79d5ced16"><path d="M 42.726562 7.566406 L 36.402344 4.703125 L 30.089844 7.566406 L 30.089844 19.167969 L 36.402344 16.308594 L 42.71875 19.167969 Z M 42.726562 7.566406 " clip-rule="nonzero"/></clipPath><clipPath id="d8eafc745f"><path d="M 0.0546875 0.621094 L 12.808594 0.621094 L 12.808594 15.222656 L 0.0546875 15.222656 Z M 0.0546875 0.621094 " clip-rule="nonzero"/></clipPath><clipPath id="4124be3842"><path d="M 12.726562 3.566406 L 6.402344 0.703125 L 0.0898438 3.566406 L 0.0898438 15.167969 L 6.402344 12.308594 L 12.71875 15.167969 Z M 12.726562 3.566406 " clip-rule="nonzero"/></clipPath><clipPath id="b9079d61ff"><rect x="0" width="13" y="0" height="16"/></clipPath><clipPath id="3afa76558c"><path d="M 4.730469 4.621094 L 10.089844 4.621094 L 10.089844 19.222656 L 4.730469 19.222656 Z M 4.730469 4.621094 " clip-rule="nonzero"/></clipPath><clipPath id="3e031f5d89"><path d="M 4.8125 7.566406 L 4.8125 19.167969 L 10.019531 4.714844 Z M 4.8125 7.566406 " clip-rule="nonzero"/></clipPath><clipPath id="b62682235d"><path d="M 0.730469 0.621094 L 6.089844 0.621094 L 6.089844 15.222656 L 0.730469 15.222656 Z M 0.730469 0.621094 " clip-rule="nonzero"/></clipPath><clipPath id="5ad7f445de"><path d="M 0.8125 3.566406 L 0.8125 15.167969 L 6.019531 0.714844 Z M 0.8125 3.566406 " clip-rule="nonzero"/></clipPath><clipPath id="28f52d3df4"><rect x="0" width="7" y="0" height="16"/></clipPath><clipPath id="b444131b72"><path d="M 12.125 4.621094 L 17.484375 4.621094 L 17.484375 19.222656 L 12.125 19.222656 Z M 12.125 4.621094 " clip-rule="nonzero"/></clipPath><clipPath id="c3da673f45"><path d="M 12.25 4.714844 L 17.453125 19.167969 L 17.453125 7.566406 Z M 12.25 4.714844 " clip-rule="nonzero"/></clipPath><clipPath id="6094ede2f6"><path d="M 0.125 0.621094 L 5.484375 0.621094 L 5.484375 15.222656 L 0.125 15.222656 Z M 0.125 0.621094 " clip-rule="nonzero"/></clipPath><clipPath id="c22ce9d644"><path d="M 0.25 0.714844 L 5.453125 15.167969 L 5.453125 3.566406 Z M 0.25 0.714844 " clip-rule="nonzero"/></clipPath><clipPath id="6cd55cc335"><rect x="0" width="6" y="0" height="16"/></clipPath><clipPath id="f471c64210"><path d="M 4.730469 4.621094 L 10.089844 4.621094 L 10.089844 19.222656 L 4.730469 19.222656 Z M 4.730469 4.621094 " clip-rule="nonzero"/></clipPath><clipPath id="e339855b77"><path d="M 10.054688 4.703125 L 10.054688 16.316406 L 4.8125 19.167969 L 10.019531 4.714844 Z M 10.054688 4.703125 " clip-rule="nonzero"/></clipPath><clipPath id="dc707a7c87"><path d="M 0.730469 0.621094 L 6.089844 0.621094 L 6.089844 15.222656 L 0.730469 15.222656 Z M 0.730469 0.621094 " clip-rule="nonzero"/></clipPath><clipPath id="b207e21764"><path d="M 6.054688 0.703125 L 6.054688 12.316406 L 0.8125 15.167969 L 6.019531 0.714844 Z M 6.054688 0.703125 " clip-rule="nonzero"/></clipPath><clipPath id="152fe58357"><rect x="0" width="7" y="0" height="16"/></clipPath><clipPath id="fc22366f7e"><path d="M 12.125 4.621094 L 17.484375 4.621094 L 17.484375 19.222656 L 12.125 19.222656 Z M 12.125 4.621094 " clip-rule="nonzero"/></clipPath><clipPath id="a687729a2a"><path d="M 17.453125 19.167969 L 12.210938 16.316406 L 12.210938 4.703125 L 12.25 4.714844 Z M 17.453125 19.167969 " clip-rule="nonzero"/></clipPath><clipPath id="42703cff46"><path d="M 0.125 0.621094 L 5.484375 0.621094 L 5.484375 15.222656 L 0.125 15.222656 Z M 0.125 0.621094 " clip-rule="nonzero"/></clipPath><clipPath id="c68aa84d4a"><path d="M 5.453125 15.167969 L 0.210938 12.316406 L 0.210938 0.703125 L 0.25 0.714844 Z M 5.453125 15.167969 " clip-rule="nonzero"/></clipPath><clipPath id="8da73c9d92"><rect x="0" width="6" y="0" height="16"/></clipPath><clipPath id="9d695d31b8"><path d="M 4.730469 24.398438 L 30.238281 24.398438 L 30.238281 49.351562 L 4.730469 49.351562 Z M 4.730469 24.398438 " clip-rule="nonzero"/></clipPath><clipPath id="9d3911c13e"><path d="M 17.453125 34.996094 L 17.453125 24.484375 L 4.8125 24.484375 L 4.8125 36.632812 C 4.8125 43.578125 10.441406 49.203125 17.386719 49.203125 L 30.089844 49.203125 L 30.089844 36.566406 L 19.015625 36.566406 C 18.148438 36.566406 17.441406 35.863281 17.441406 34.996094 " clip-rule="nonzero"/></clipPath><clipPath id="6a43df6227"><path d="M 0.730469 0.398438 L 26.210938 0.398438 L 26.210938 25.214844 L 0.730469 25.214844 Z M 0.730469 0.398438 " clip-rule="nonzero"/></clipPath><clipPath id="eeade80b10"><path d="M 13.453125 10.996094 L 13.453125 0.484375 L 0.8125 0.484375 L 0.8125 12.632812 C 0.8125 19.578125 6.441406 25.203125 13.386719 25.203125 L 26.089844 25.203125 L 26.089844 12.566406 L 15.015625 12.566406 C 14.148438 12.566406 13.441406 11.863281 13.441406 10.996094 " clip-rule="nonzero"/></clipPath><clipPath id="4b44cf9ccc"><rect x="0" width="27" y="0" height="26"/></clipPath></defs><g clip-path="url(#33400ab477)"><path fill="#ffffff" d="M 0.109375 0 L 47.890625 0 L 47.890625 54.5 L 0.109375 54.5 Z M 0.109375 0 " fill-opacity="1" fill-rule="nonzero"/></g><g clip-path="url(#695da8dac5)"><g clip-path="url(#12c1208d52)"><g transform="matrix(1, 0, 0, 1, 30, 22)"><g clip-path="url(#6ab188163e)"><g clip-path="url(#2e803cc899)"><g clip-path="url(#6688efec2b)"><rect x="-40.56" width="69.12" fill="#ffffff" height="78.840001" y="-34.045" fill-opacity="1"/></g></g></g></g></g></g><g clip-path="url(#9a6799f7a9)"><g clip-path="url(#d79d5ced16)"><g transform="matrix(1, 0, 0, 1, 30, 4)"><g clip-path="url(#b9079d61ff)"><g clip-path="url(#d8eafc745f)"><g clip-path="url(#4124be3842)"><rect x="-40.56" width="69.12" fill="#ffffff" height="78.840001" y="-16.045" fill-opacity="1"/></g></g></g></g></g></g><g clip-path="url(#3afa76558c)"><g clip-path="url(#3e031f5d89)"><g transform="matrix(1, 0, 0, 1, 4, 4)"><g clip-path="url(#28f52d3df4)"><g clip-path="url(#b62682235d)"><g clip-path="url(#5ad7f445de)"><rect x="-14.56" width="69.12" fill="#ffffff" height="78.840001" y="-16.045" fill-opacity="1"/></g></g></g></g></g></g><g clip-path="url(#b444131b72)"><g clip-path="url(#c3da673f45)"><g transform="matrix(1, 0, 0, 1, 12, 4)"><g clip-path="url(#6cd55cc335)"><g clip-path="url(#6094ede2f6)"><g clip-path="url(#c22ce9d644)"><rect x="-22.56" width="69.12" fill="#ffffff" height="78.840001" y="-16.045" fill-opacity="1"/></g></g></g></g></g></g><g clip-path="url(#f471c64210)"><g clip-path="url(#e339855b77)"><g transform="matrix(1, 0, 0, 1, 4, 4)"><g clip-path="url(#152fe58357)"><g clip-path="url(#dc707a7c87)"><g clip-path="url(#b207e21764)"><rect x="-14.56" width="69.12" fill="#fcb625" height="78.840001" y="-16.045" fill-opacity="1"/></g></g></g></g></g></g><g clip-path="url(#fc22366f7e)"><g clip-path="url(#a687729a2a)"><g transform="matrix(1, 0, 0, 1, 12, 4)"><g clip-path="url(#8da73c9d92)"><g clip-path="url(#42703cff46)"><g clip-path="url(#c68aa84d4a)"><rect x="-22.56" width="69.12" fill="#fcb625" height="78.840001" y="-16.045" fill-opacity="1"/></g></g></g></g></g></g><g clip-path="url(#9d695d31b8)"><g clip-path="url(#9d3911c13e)"><g transform="matrix(1, 0, 0, 1, 4, 24)"><g clip-path="url(#4b44cf9ccc)"><g clip-path="url(#6a43df6227)"><g clip-path="url(#eeade80b10)"><rect x="-14.56" width="69.12" fill="#ffffff" height="78.840001" y="-36.045" fill-opacity="1"/></g></g></g></g></g></g></svg>