<svg xmlns="http://www.w3.org/2000/svg" xmlns:xlink="http://www.w3.org/1999/xlink" width="33" zoomAndPan="magnify" viewBox="0 0 24.75 27.749999" height="37" preserveAspectRatio="xMidYMid meet" version="1.0"><defs><clipPath id="49a3482d96"><path d="M 14.898438 11.09375 L 21 11.09375 L 21 18.171875 L 14.898438 18.171875 Z M 14.898438 11.09375 " clip-rule="nonzero"/></clipPath><clipPath id="876e1aad6f"><path d="M 20.992188 12.554688 L 17.964844 11.1875 L 14.941406 12.554688 L 14.941406 18.105469 L 17.964844 16.742188 L 20.992188 18.105469 Z M 20.992188 12.554688 " clip-rule="nonzero"/></clipPath><clipPath id="eb25dcd243"><path d="M 0.898438 0.183594 L 7 0.183594 L 7 7.171875 L 0.898438 7.171875 Z M 0.898438 0.183594 " clip-rule="nonzero"/></clipPath><clipPath id="6b9a22cbcc"><path d="M 6.992188 1.554688 L 3.964844 0.1875 L 0.941406 1.554688 L 0.941406 7.105469 L 3.964844 5.742188 L 6.992188 7.105469 Z M 6.992188 1.554688 " clip-rule="nonzero"/></clipPath><clipPath id="b01537f1c6"><rect x="0" width="7" y="0" height="8"/></clipPath><clipPath id="25e3ec51da"><path d="M 14.898438 2.808594 L 21 2.808594 L 21 9.792969 L 14.898438 9.792969 Z M 14.898438 2.808594 " clip-rule="nonzero"/></clipPath><clipPath id="59cb3bc383"><path d="M 20.992188 4.230469 L 17.964844 2.863281 L 14.941406 4.230469 L 14.941406 9.78125 L 17.964844 8.414062 L 20.992188 9.78125 Z M 20.992188 4.230469 " clip-rule="nonzero"/></clipPath><clipPath id="53da7c7e31"><path d="M 0.898438 0.808594 L 7 0.808594 L 7 7.792969 L 0.898438 7.792969 Z M 0.898438 0.808594 " clip-rule="nonzero"/></clipPath><clipPath id="65b4a4efaa"><path d="M 6.992188 2.230469 L 3.964844 0.863281 L 0.941406 2.230469 L 0.941406 7.78125 L 3.964844 6.414062 L 6.992188 7.78125 Z M 6.992188 2.230469 " clip-rule="nonzero"/></clipPath><clipPath id="350bc9621a"><rect x="0" width="7" y="0" height="8"/></clipPath><clipPath id="47e4590e89"><path d="M 2.792969 2.808594 L 5.402344 2.808594 L 5.402344 9.792969 L 2.792969 9.792969 Z M 2.792969 2.808594 " clip-rule="nonzero"/></clipPath><clipPath id="7f68b5f489"><path d="M 2.847656 4.230469 L 2.847656 9.78125 L 5.335938 2.867188 Z M 2.847656 4.230469 " clip-rule="nonzero"/></clipPath><clipPath id="89c7ae678b"><path d="M 0.792969 0.867188 L 3.402344 0.867188 L 3.402344 7.792969 L 0.792969 7.792969 Z M 0.792969 0.867188 " clip-rule="nonzero"/></clipPath><clipPath id="f2f06905a4"><path d="M 0.847656 2.230469 L 0.847656 7.78125 L 3.335938 0.867188 Z M 0.847656 2.230469 " clip-rule="nonzero"/></clipPath><clipPath id="0e8c210e84"><rect x="0" width="4" y="0" height="8"/></clipPath><clipPath id="ef84ec08cd"><path d="M 6.332031 2.808594 L 8.9375 2.808594 L 8.9375 9.792969 L 6.332031 9.792969 Z M 6.332031 2.808594 " clip-rule="nonzero"/></clipPath><clipPath id="c0fcd41c9a"><path d="M 6.40625 2.867188 L 8.894531 9.789062 L 8.894531 4.230469 Z M 6.40625 2.867188 " clip-rule="nonzero"/></clipPath><clipPath id="106aaea20d"><path d="M 0.332031 0.867188 L 2.9375 0.867188 L 2.9375 7.792969 L 0.332031 7.792969 Z M 0.332031 0.867188 " clip-rule="nonzero"/></clipPath><clipPath id="b23013de0a"><path d="M 0.40625 0.867188 L 2.894531 7.789062 L 2.894531 2.230469 Z M 0.40625 0.867188 " clip-rule="nonzero"/></clipPath><clipPath id="248178ef62"><rect x="0" width="3" y="0" height="8"/></clipPath><clipPath id="a5fe9060e8"><path d="M 2.792969 2.808594 L 5.402344 2.808594 L 5.402344 9.792969 L 2.792969 9.792969 Z M 2.792969 2.808594 " clip-rule="nonzero"/></clipPath><clipPath id="4d914379af"><path d="M 5.359375 2.863281 L 5.359375 8.421875 L 2.847656 9.78125 L 5.335938 2.867188 Z M 5.359375 2.863281 " clip-rule="nonzero"/></clipPath><clipPath id="afb00572a8"><path d="M 0.792969 0.808594 L 3.402344 0.808594 L 3.402344 7.792969 L 0.792969 7.792969 Z M 0.792969 0.808594 " clip-rule="nonzero"/></clipPath><clipPath id="c560f836c0"><path d="M 3.359375 0.863281 L 3.359375 6.421875 L 0.847656 7.78125 L 3.335938 0.867188 Z M 3.359375 0.863281 " clip-rule="nonzero"/></clipPath><clipPath id="9dd066e184"><rect x="0" width="4" y="0" height="8"/></clipPath><clipPath id="6c724d912b"><path d="M 6.332031 2.808594 L 8.9375 2.808594 L 8.9375 9.792969 L 6.332031 9.792969 Z M 6.332031 2.808594 " clip-rule="nonzero"/></clipPath><clipPath id="ec1f24ca0c"><path d="M 8.894531 9.78125 L 6.382812 8.414062 L 6.382812 2.863281 L 6.402344 2.867188 Z M 8.894531 9.78125 " clip-rule="nonzero"/></clipPath><clipPath id="8f685b21db"><path d="M 0.332031 0.808594 L 2.9375 0.808594 L 2.9375 7.792969 L 0.332031 7.792969 Z M 0.332031 0.808594 " clip-rule="nonzero"/></clipPath><clipPath id="f5bce502e6"><path d="M 2.894531 7.78125 L 0.382812 6.414062 L 0.382812 0.863281 L 0.402344 0.867188 Z M 2.894531 7.78125 " clip-rule="nonzero"/></clipPath><clipPath id="8428d13940"><rect x="0" width="3" y="0" height="8"/></clipPath><clipPath id="6ff5c21e54"><path d="M 2.792969 12.304688 L 14.992188 12.304688 L 14.992188 24.222656 L 2.792969 24.222656 Z M 2.792969 12.304688 " clip-rule="nonzero"/></clipPath><clipPath id="41f95e3432"><path d="M 8.894531 17.359375 L 8.894531 12.328125 L 2.847656 12.328125 L 2.847656 18.140625 C 2.847656 21.460938 5.539062 24.15625 8.859375 24.15625 L 14.941406 24.15625 L 14.941406 18.105469 L 9.648438 18.105469 C 9.230469 18.105469 8.894531 17.769531 8.894531 17.355469 " clip-rule="nonzero"/></clipPath><clipPath id="c98a4cc0d5"><path d="M 0.792969 0.304688 L 12.96875 0.304688 L 12.96875 12.222656 L 0.792969 12.222656 Z M 0.792969 0.304688 " clip-rule="nonzero"/></clipPath><clipPath id="824171b58d"><path d="M 6.894531 5.359375 L 6.894531 0.328125 L 0.847656 0.328125 L 0.847656 6.140625 C 0.847656 9.460938 3.539062 12.15625 6.859375 12.15625 L 12.941406 12.15625 L 12.941406 6.105469 L 7.648438 6.105469 C 7.230469 6.105469 6.894531 5.769531 6.894531 5.355469 " clip-rule="nonzero"/></clipPath><clipPath id="1a90a9d626"><rect x="0" width="13" y="0" height="13"/></clipPath></defs><g clip-path="url(#49a3482d96)"><g clip-path="url(#876e1aad6f)"><g transform="matrix(1, 0, 0, 1, 14, 11)"><g clip-path="url(#b01537f1c6)"><g clip-path="url(#eb25dcd243)"><g clip-path="url(#6b9a22cbcc)"><rect x="-19.445" width="35.64" fill="#173da3" height="39.959999" y="-17.105" fill-opacity="1"/></g></g></g></g></g></g><g clip-path="url(#25e3ec51da)"><g clip-path="url(#59cb3bc383)"><g transform="matrix(1, 0, 0, 1, 14, 2)"><g clip-path="url(#350bc9621a)"><g clip-path="url(#53da7c7e31)"><g clip-path="url(#65b4a4efaa)"><rect x="-19.445" width="35.64" fill="#173da3" height="39.959999" y="-8.105" fill-opacity="1"/></g></g></g></g></g></g><g clip-path="url(#47e4590e89)"><g clip-path="url(#7f68b5f489)"><g transform="matrix(1, 0, 0, 1, 2, 2)"><g clip-path="url(#0e8c210e84)"><g clip-path="url(#89c7ae678b)"><g clip-path="url(#f2f06905a4)"><rect x="-7.445" width="35.64" fill="#173da3" height="39.959999" y="-8.105" fill-opacity="1"/></g></g></g></g></g></g><g clip-path="url(#ef84ec08cd)"><g clip-path="url(#c0fcd41c9a)"><g transform="matrix(1, 0, 0, 1, 6, 2)"><g clip-path="url(#248178ef62)"><g clip-path="url(#106aaea20d)"><g clip-path="url(#b23013de0a)"><rect x="-11.445" width="35.64" fill="#173da3" height="39.959999" y="-8.105" fill-opacity="1"/></g></g></g></g></g></g><g clip-path="url(#a5fe9060e8)"><g clip-path="url(#4d914379af)"><g transform="matrix(1, 0, 0, 1, 2, 2)"><g clip-path="url(#9dd066e184)"><g clip-path="url(#afb00572a8)"><g clip-path="url(#c560f836c0)"><rect x="-7.445" width="35.64" fill="#fcb625" height="39.959999" y="-8.105" fill-opacity="1"/></g></g></g></g></g></g><g clip-path="url(#6c724d912b)"><g clip-path="url(#ec1f24ca0c)"><g transform="matrix(1, 0, 0, 1, 6, 2)"><g clip-path="url(#8428d13940)"><g clip-path="url(#8f685b21db)"><g clip-path="url(#f5bce502e6)"><rect x="-11.445" width="35.64" fill="#fcb625" height="39.959999" y="-8.105" fill-opacity="1"/></g></g></g></g></g></g><g clip-path="url(#6ff5c21e54)"><g clip-path="url(#41f95e3432)"><g transform="matrix(1, 0, 0, 1, 2, 12)"><g clip-path="url(#1a90a9d626)"><g clip-path="url(#c98a4cc0d5)"><g clip-path="url(#824171b58d)"><rect x="-7.445" width="35.64" fill="#173da3" height="39.959999" y="-18.105" fill-opacity="1"/></g></g></g></g></g></g></svg>