<svg xmlns="http://www.w3.org/2000/svg" xmlns:xlink="http://www.w3.org/1999/xlink" width="28" zoomAndPan="magnify" viewBox="0 0 21 23.999999" height="32" preserveAspectRatio="xMidYMid meet" version="1.0"><defs><clipPath id="7d0f202bd3"><path d="M 13.273438 9.75 L 18.929688 9.75 L 18.929688 16.226562 L 13.273438 16.226562 Z M 13.273438 9.75 " clip-rule="nonzero"/></clipPath><clipPath id="d07fdcf370"><path d="M 18.894531 11.0625 L 16.09375 9.792969 L 13.296875 11.0625 L 13.296875 16.210938 L 16.09375 14.941406 L 18.894531 16.210938 Z M 18.894531 11.0625 " clip-rule="nonzero"/></clipPath><clipPath id="a99219be05"><path d="M 0.273438 0.75 L 5.929688 0.75 L 5.929688 7.226562 L 0.273438 7.226562 Z M 0.273438 0.75 " clip-rule="nonzero"/></clipPath><clipPath id="d52409657a"><path d="M 5.894531 2.0625 L 3.09375 0.792969 L 0.296875 2.0625 L 0.296875 7.210938 L 3.09375 5.941406 L 5.894531 7.210938 Z M 5.894531 2.0625 " clip-rule="nonzero"/></clipPath><clipPath id="f87cab6a5e"><rect x="0" width="6" y="0" height="8"/></clipPath><clipPath id="3ff4d8a804"><path d="M 13.273438 2.046875 L 18.929688 2.046875 L 18.929688 8.523438 L 13.273438 8.523438 Z M 13.273438 2.046875 " clip-rule="nonzero"/></clipPath><clipPath id="d1c458b1df"><path d="M 18.894531 3.355469 L 16.089844 2.085938 L 13.289062 3.355469 L 13.289062 8.496094 L 16.089844 7.230469 L 18.890625 8.496094 Z M 18.894531 3.355469 " clip-rule="nonzero"/></clipPath><clipPath id="00352cf3d1"><path d="M 0.273438 0.046875 L 5.929688 0.046875 L 5.929688 6.523438 L 0.273438 6.523438 Z M 0.273438 0.046875 " clip-rule="nonzero"/></clipPath><clipPath id="17ee151675"><path d="M 5.894531 1.355469 L 3.089844 0.0859375 L 0.289062 1.355469 L 0.289062 6.496094 L 3.089844 5.230469 L 5.890625 6.496094 Z M 5.894531 1.355469 " clip-rule="nonzero"/></clipPath><clipPath id="a3cc1ef9a4"><rect x="0" width="6" y="0" height="7"/></clipPath><clipPath id="08e58796aa"><path d="M 2.046875 2.046875 L 4.425781 2.046875 L 4.425781 8.523438 L 2.046875 8.523438 Z M 2.046875 2.046875 " clip-rule="nonzero"/></clipPath><clipPath id="7318adf29e"><path d="M 2.085938 3.355469 L 2.085938 8.496094 L 4.394531 2.089844 Z M 2.085938 3.355469 " clip-rule="nonzero"/></clipPath><clipPath id="2c0da877fc"><path d="M 0.046875 0.046875 L 2.425781 0.046875 L 2.425781 6.523438 L 0.046875 6.523438 Z M 0.046875 0.046875 " clip-rule="nonzero"/></clipPath><clipPath id="854a966fcf"><path d="M 0.0859375 1.355469 L 0.0859375 6.496094 L 2.394531 0.0898438 Z M 0.0859375 1.355469 " clip-rule="nonzero"/></clipPath><clipPath id="19b5db8840"><rect x="0" width="3" y="0" height="7"/></clipPath><clipPath id="b912118970"><path d="M 5.328125 2.046875 L 7.703125 2.046875 L 7.703125 8.523438 L 5.328125 8.523438 Z M 5.328125 2.046875 " clip-rule="nonzero"/></clipPath><clipPath id="576b09f0a1"><path d="M 5.382812 2.089844 L 7.6875 8.496094 L 7.6875 3.355469 Z M 5.382812 2.089844 " clip-rule="nonzero"/></clipPath><clipPath id="d4f3b2ccf6"><path d="M 0.328125 0.046875 L 2.703125 0.046875 L 2.703125 6.523438 L 0.328125 6.523438 Z M 0.328125 0.046875 " clip-rule="nonzero"/></clipPath><clipPath id="c8df4b4639"><path d="M 0.382812 0.0898438 L 2.6875 6.496094 L 2.6875 1.355469 Z M 0.382812 0.0898438 " clip-rule="nonzero"/></clipPath><clipPath id="b3cd5bc1df"><rect x="0" width="3" y="0" height="7"/></clipPath><clipPath id="d1a6852349"><path d="M 2.046875 2.046875 L 4.425781 2.046875 L 4.425781 8.523438 L 2.046875 8.523438 Z M 2.046875 2.046875 " clip-rule="nonzero"/></clipPath><clipPath id="ce05c5bb5a"><path d="M 4.410156 2.085938 L 4.410156 7.234375 L 2.085938 8.496094 L 4.394531 2.089844 Z M 4.410156 2.085938 " clip-rule="nonzero"/></clipPath><clipPath id="b43319aa80"><path d="M 0.046875 0.046875 L 2.425781 0.046875 L 2.425781 6.523438 L 0.046875 6.523438 Z M 0.046875 0.046875 " clip-rule="nonzero"/></clipPath><clipPath id="35690e4d1b"><path d="M 2.410156 0.0859375 L 2.410156 5.234375 L 0.0859375 6.496094 L 2.394531 0.0898438 Z M 2.410156 0.0859375 " clip-rule="nonzero"/></clipPath><clipPath id="ee57d43652"><rect x="0" width="3" y="0" height="7"/></clipPath><clipPath id="a2b21f0cb6"><path d="M 5.328125 2.046875 L 7.703125 2.046875 L 7.703125 8.523438 L 5.328125 8.523438 Z M 5.328125 2.046875 " clip-rule="nonzero"/></clipPath><clipPath id="8515f18c15"><path d="M 7.6875 8.496094 L 5.363281 7.234375 L 5.363281 2.085938 L 5.382812 2.089844 Z M 7.6875 8.496094 " clip-rule="nonzero"/></clipPath><clipPath id="98ebb66a69"><path d="M 0.328125 0.046875 L 2.703125 0.046875 L 2.703125 6.523438 L 0.328125 6.523438 Z M 0.328125 0.046875 " clip-rule="nonzero"/></clipPath><clipPath id="1f71bcbe6f"><path d="M 2.6875 6.496094 L 0.363281 5.234375 L 0.363281 0.0859375 L 0.382812 0.0898438 Z M 2.6875 6.496094 " clip-rule="nonzero"/></clipPath><clipPath id="6d4fae4fea"><rect x="0" width="3" y="0" height="7"/></clipPath><clipPath id="a86aea114f"><path d="M 2.046875 10.816406 L 13.355469 10.816406 L 13.355469 21.878906 L 2.046875 21.878906 Z M 2.046875 10.816406 " clip-rule="nonzero"/></clipPath><clipPath id="3919224b9d"><path d="M 7.6875 15.515625 L 7.6875 10.855469 L 2.085938 10.855469 L 2.085938 16.238281 C 2.085938 19.320312 4.582031 21.8125 7.660156 21.8125 L 13.289062 21.8125 L 13.289062 16.210938 L 8.378906 16.210938 C 7.996094 16.210938 7.683594 15.898438 7.683594 15.515625 " clip-rule="nonzero"/></clipPath><clipPath id="bb802c465d"><path d="M 0.046875 0.816406 L 11.355469 0.816406 L 11.355469 11.839844 L 0.046875 11.839844 Z M 0.046875 0.816406 " clip-rule="nonzero"/></clipPath><clipPath id="5101c25d54"><path d="M 5.6875 5.515625 L 5.6875 0.855469 L 0.0859375 0.855469 L 0.0859375 6.238281 C 0.0859375 9.320312 2.582031 11.8125 5.660156 11.8125 L 11.289062 11.8125 L 11.289062 6.210938 L 6.378906 6.210938 C 5.996094 6.210938 5.683594 5.898438 5.683594 5.515625 " clip-rule="nonzero"/></clipPath><clipPath id="335fcededa"><rect x="0" width="12" y="0" height="12"/></clipPath></defs><rect x="-2.1" width="25.2" fill="#ffffff" y="-2.4" height="28.799999" fill-opacity="1"/><g clip-path="url(#7d0f202bd3)"><g clip-path="url(#d07fdcf370)"><g transform="matrix(1, 0, 0, 1, 13, 9)"><g clip-path="url(#f87cab6a5e)"><g clip-path="url(#a99219be05)"><g clip-path="url(#d52409657a)"><rect x="-17.62" width="30.24" fill="#204195" height="34.559999" y="-14.28" fill-opacity="1"/></g></g></g></g></g></g><g clip-path="url(#3ff4d8a804)"><g clip-path="url(#d1c458b1df)"><g transform="matrix(1, 0, 0, 1, 13, 2)"><g clip-path="url(#a3cc1ef9a4)"><g clip-path="url(#00352cf3d1)"><g clip-path="url(#17ee151675)"><rect x="-17.62" width="30.24" fill="#204195" height="34.559999" y="-7.28" fill-opacity="1"/></g></g></g></g></g></g><g clip-path="url(#08e58796aa)"><g clip-path="url(#7318adf29e)"><g transform="matrix(1, 0, 0, 1, 2, 2)"><g clip-path="url(#19b5db8840)"><g clip-path="url(#2c0da877fc)"><g clip-path="url(#854a966fcf)"><rect x="-6.62" width="30.24" fill="#204195" height="34.559999" y="-7.28" fill-opacity="1"/></g></g></g></g></g></g><g clip-path="url(#b912118970)"><g clip-path="url(#576b09f0a1)"><g transform="matrix(1, 0, 0, 1, 5, 2)"><g clip-path="url(#b3cd5bc1df)"><g clip-path="url(#d4f3b2ccf6)"><g clip-path="url(#c8df4b4639)"><rect x="-9.62" width="30.24" fill="#204195" height="34.559999" y="-7.28" fill-opacity="1"/></g></g></g></g></g></g><g clip-path="url(#d1a6852349)"><g clip-path="url(#ce05c5bb5a)"><g transform="matrix(1, 0, 0, 1, 2, 2)"><g clip-path="url(#ee57d43652)"><g clip-path="url(#b43319aa80)"><g clip-path="url(#35690e4d1b)"><rect x="-6.62" width="30.24" fill="#fcb625" height="34.559999" y="-7.28" fill-opacity="1"/></g></g></g></g></g></g><g clip-path="url(#a2b21f0cb6)"><g clip-path="url(#8515f18c15)"><g transform="matrix(1, 0, 0, 1, 5, 2)"><g clip-path="url(#6d4fae4fea)"><g clip-path="url(#98ebb66a69)"><g clip-path="url(#1f71bcbe6f)"><rect x="-9.62" width="30.24" fill="#fcb625" height="34.559999" y="-7.28" fill-opacity="1"/></g></g></g></g></g></g><g clip-path="url(#a86aea114f)"><g clip-path="url(#3919224b9d)"><g transform="matrix(1, 0, 0, 1, 2, 10)"><g clip-path="url(#335fcededa)"><g clip-path="url(#bb802c465d)"><g clip-path="url(#5101c25d54)"><rect x="-6.62" width="30.24" fill="#204195" height="34.559999" y="-15.28" fill-opacity="1"/></g></g></g></g></g></g></svg>