<svg xmlns="http://www.w3.org/2000/svg" xmlns:xlink="http://www.w3.org/1999/xlink" width="79" zoomAndPan="magnify" viewBox="0 0 59.25 67.499996" height="90" preserveAspectRatio="xMidYMid meet" version="1.0"><defs><clipPath id="0725c2a93d"><path d="M 0 0.175781 L 58.507812 0.175781 L 58.507812 66.832031 L 0 66.832031 Z M 0 0.175781 " clip-rule="nonzero"/></clipPath><clipPath id="3c26aa0bff"><path d="M 36.921875 27.296875 L 52.644531 27.296875 L 52.644531 45.300781 L 36.921875 45.300781 Z M 36.921875 27.296875 " clip-rule="nonzero"/></clipPath><clipPath id="76a9d45be7"><path d="M 52.546875 30.945312 L 44.761719 27.417969 L 36.976562 30.945312 L 36.976562 45.261719 L 44.761719 41.734375 L 52.546875 45.261719 Z M 52.546875 30.945312 " clip-rule="nonzero"/></clipPath><clipPath id="2c6d7c8053"><path d="M 0.972656 0.296875 L 16.613281 0.296875 L 16.613281 18.300781 L 0.972656 18.300781 Z M 0.972656 0.296875 " clip-rule="nonzero"/></clipPath><clipPath id="76a677cd82"><path d="M 16.546875 3.945312 L 8.761719 0.417969 L 0.976562 3.945312 L 0.976562 18.261719 L 8.761719 14.734375 L 16.546875 18.261719 Z M 16.546875 3.945312 " clip-rule="nonzero"/></clipPath><clipPath id="fb0fb60665"><rect x="0" width="17" y="0" height="19"/></clipPath><clipPath id="8539610675"><path d="M 36.921875 5.871094 L 52.644531 5.871094 L 52.644531 23.878906 L 36.921875 23.878906 Z M 36.921875 5.871094 " clip-rule="nonzero"/></clipPath><clipPath id="5187525d17"><path d="M 52.546875 9.503906 L 44.75 5.976562 L 36.964844 9.503906 L 36.964844 23.808594 L 44.75 20.28125 L 52.535156 23.808594 Z M 52.546875 9.503906 " clip-rule="nonzero"/></clipPath><clipPath id="7ca4ed0797"><path d="M 0.921875 0.871094 L 16.613281 0.871094 L 16.613281 18.875 L 0.921875 18.875 Z M 0.921875 0.871094 " clip-rule="nonzero"/></clipPath><clipPath id="120f0ec90c"><path d="M 16.546875 4.503906 L 8.75 0.976562 L 0.964844 4.503906 L 0.964844 18.808594 L 8.75 15.28125 L 16.535156 18.808594 Z M 16.546875 4.503906 " clip-rule="nonzero"/></clipPath><clipPath id="28b9f51f5f"><rect x="0" width="17" y="0" height="19"/></clipPath><clipPath id="e800abde75"><path d="M 5.699219 5.871094 L 12.308594 5.871094 L 12.308594 23.878906 L 5.699219 23.878906 Z M 5.699219 5.871094 " clip-rule="nonzero"/></clipPath><clipPath id="44097bdde8"><path d="M 5.800781 9.503906 L 5.800781 23.808594 L 12.21875 5.988281 Z M 5.800781 9.503906 " clip-rule="nonzero"/></clipPath><clipPath id="8d00600ccf"><path d="M 0.699219 0.871094 L 7.308594 0.871094 L 7.308594 18.875 L 0.699219 18.875 Z M 0.699219 0.871094 " clip-rule="nonzero"/></clipPath><clipPath id="780c71fae5"><path d="M 0.800781 4.503906 L 0.800781 18.808594 L 7.21875 0.988281 Z M 0.800781 4.503906 " clip-rule="nonzero"/></clipPath><clipPath id="9241f1d305"><rect x="0" width="8" y="0" height="19"/></clipPath><clipPath id="da26dfb0c7"><path d="M 14.8125 5.871094 L 21.421875 5.871094 L 21.421875 23.878906 L 14.8125 23.878906 Z M 14.8125 5.871094 " clip-rule="nonzero"/></clipPath><clipPath id="d75d2fa989"><path d="M 14.96875 5.988281 L 21.382812 23.808594 L 21.382812 9.503906 Z M 14.96875 5.988281 " clip-rule="nonzero"/></clipPath><clipPath id="77510ea667"><path d="M 0.929688 0.871094 L 7.421875 0.871094 L 7.421875 18.875 L 0.929688 18.875 Z M 0.929688 0.871094 " clip-rule="nonzero"/></clipPath><clipPath id="05a73d612c"><path d="M 0.96875 0.988281 L 7.382812 18.808594 L 7.382812 4.503906 Z M 0.96875 0.988281 " clip-rule="nonzero"/></clipPath><clipPath id="aa205fa9ff"><rect x="0" width="8" y="0" height="19"/></clipPath><clipPath id="d8f41538c3"><path d="M 5.699219 5.871094 L 12.308594 5.871094 L 12.308594 23.878906 L 5.699219 23.878906 Z M 5.699219 5.871094 " clip-rule="nonzero"/></clipPath><clipPath id="acaed4405f"><path d="M 12.261719 5.976562 L 12.261719 20.292969 L 5.800781 23.808594 L 12.21875 5.988281 Z M 12.261719 5.976562 " clip-rule="nonzero"/></clipPath><clipPath id="c85fac8585"><path d="M 0.699219 0.871094 L 7.308594 0.871094 L 7.308594 18.875 L 0.699219 18.875 Z M 0.699219 0.871094 " clip-rule="nonzero"/></clipPath><clipPath id="d5ed5c3f3d"><path d="M 7.261719 0.976562 L 7.261719 15.292969 L 0.800781 18.808594 L 7.21875 0.988281 Z M 7.261719 0.976562 " clip-rule="nonzero"/></clipPath><clipPath id="67b8f8efca"><rect x="0" width="8" y="0" height="19"/></clipPath><clipPath id="a2d7d93ef9"><path d="M 14.8125 5.871094 L 21.421875 5.871094 L 21.421875 23.878906 L 14.8125 23.878906 Z M 14.8125 5.871094 " clip-rule="nonzero"/></clipPath><clipPath id="22875518d3"><path d="M 21.382812 23.808594 L 14.921875 20.292969 L 14.921875 5.976562 L 14.96875 5.988281 Z M 21.382812 23.808594 " clip-rule="nonzero"/></clipPath><clipPath id="e97b266d80"><path d="M 0.8125 0.871094 L 7.421875 0.871094 L 7.421875 18.875 L 0.8125 18.875 Z M 0.8125 0.871094 " clip-rule="nonzero"/></clipPath><clipPath id="3d9fdfa353"><path d="M 7.382812 18.808594 L 0.921875 15.292969 L 0.921875 0.976562 L 0.96875 0.988281 Z M 7.382812 18.808594 " clip-rule="nonzero"/></clipPath><clipPath id="7b0cdd9387"><rect x="0" width="8" y="0" height="19"/></clipPath><clipPath id="1d1994e1ef"><path d="M 5.699219 30.257812 L 37 30.257812 L 37 61 L 5.699219 61 Z M 5.699219 30.257812 " clip-rule="nonzero"/></clipPath><clipPath id="365e7eeb4d"><path d="M 21.382812 43.324219 L 21.382812 30.363281 L 5.800781 30.363281 L 5.800781 45.34375 C 5.800781 53.90625 12.738281 60.84375 21.300781 60.84375 L 36.964844 60.84375 L 36.964844 45.261719 L 23.308594 45.261719 C 22.242188 45.261719 21.371094 44.390625 21.371094 43.324219 " clip-rule="nonzero"/></clipPath><clipPath id="454b9fa9a4"><path d="M 0.699219 0.273438 L 31.972656 0.273438 L 31.972656 30.847656 L 0.699219 30.847656 Z M 0.699219 0.273438 " clip-rule="nonzero"/></clipPath><clipPath id="da69075c84"><path d="M 16.382812 13.324219 L 16.382812 0.363281 L 0.800781 0.363281 L 0.800781 15.34375 C 0.800781 23.90625 7.738281 30.84375 16.300781 30.84375 L 31.964844 30.84375 L 31.964844 15.261719 L 18.308594 15.261719 C 17.242188 15.261719 16.371094 14.390625 16.371094 13.324219 " clip-rule="nonzero"/></clipPath><clipPath id="ccabd4dd68"><rect x="0" width="32" y="0" height="31"/></clipPath></defs><g clip-path="url(#0725c2a93d)"><path fill="#ffffff" d="M 0 0.175781 L 58.507812 0.175781 L 58.507812 66.832031 L 0 66.832031 Z M 0 0.175781 " fill-opacity="1" fill-rule="nonzero"/></g><g clip-path="url(#3c26aa0bff)"><g clip-path="url(#76a9d45be7)"><g transform="matrix(1, 0, 0, 1, 36, 27)"><g clip-path="url(#fb0fb60665)"><g clip-path="url(#2c6d7c8053)"><g clip-path="url(#76a677cd82)"><rect x="-49.035" width="85.32" fill="#204195" height="97.199994" y="-41.849999" fill-opacity="1"/></g></g></g></g></g></g><g clip-path="url(#8539610675)"><g clip-path="url(#5187525d17)"><g transform="matrix(1, 0, 0, 1, 36, 5)"><g clip-path="url(#28b9f51f5f)"><g clip-path="url(#7ca4ed0797)"><g clip-path="url(#120f0ec90c)"><rect x="-49.035" width="85.32" fill="#204195" height="97.199994" y="-19.849999" fill-opacity="1"/></g></g></g></g></g></g><g clip-path="url(#e800abde75)"><g clip-path="url(#44097bdde8)"><g transform="matrix(1, 0, 0, 1, 5, 5)"><g clip-path="url(#9241f1d305)"><g clip-path="url(#8d00600ccf)"><g clip-path="url(#780c71fae5)"><rect x="-18.035" width="85.32" fill="#204195" height="97.199994" y="-19.849999" fill-opacity="1"/></g></g></g></g></g></g><g clip-path="url(#da26dfb0c7)"><g clip-path="url(#d75d2fa989)"><g transform="matrix(1, 0, 0, 1, 14, 5)"><g clip-path="url(#aa205fa9ff)"><g clip-path="url(#77510ea667)"><g clip-path="url(#05a73d612c)"><rect x="-27.035" width="85.32" fill="#204195" height="97.199994" y="-19.849999" fill-opacity="1"/></g></g></g></g></g></g><g clip-path="url(#d8f41538c3)"><g clip-path="url(#acaed4405f)"><g transform="matrix(1, 0, 0, 1, 5, 5)"><g clip-path="url(#67b8f8efca)"><g clip-path="url(#c85fac8585)"><g clip-path="url(#d5ed5c3f3d)"><rect x="-18.035" width="85.32" fill="#fcb625" height="97.199994" y="-19.849999" fill-opacity="1"/></g></g></g></g></g></g><g clip-path="url(#a2d7d93ef9)"><g clip-path="url(#22875518d3)"><g transform="matrix(1, 0, 0, 1, 14, 5)"><g clip-path="url(#7b0cdd9387)"><g clip-path="url(#e97b266d80)"><g clip-path="url(#3d9fdfa353)"><rect x="-27.035" width="85.32" fill="#fcb625" height="97.199994" y="-19.849999" fill-opacity="1"/></g></g></g></g></g></g><g clip-path="url(#1d1994e1ef)"><g clip-path="url(#365e7eeb4d)"><g transform="matrix(1, 0, 0, 1, 5, 30)"><g clip-path="url(#ccabd4dd68)"><g clip-path="url(#454b9fa9a4)"><g clip-path="url(#da69075c84)"><rect x="-18.035" width="85.32" fill="#204195" height="97.199994" y="-44.849999" fill-opacity="1"/></g></g></g></g></g></g></svg>