<svg xmlns="http://www.w3.org/2000/svg" xmlns:xlink="http://www.w3.org/1999/xlink" width="693" zoomAndPan="magnify" viewBox="0 0 519.75 592.499982" height="790" preserveAspectRatio="xMidYMid meet" version="1.0"><defs><filter x="0%" y="0%" width="100%" height="100%" id="1ce93f57b4"><feColorMatrix values="0 0 0 0 1 0 0 0 0 1 0 0 0 0 1 0 0 0 1 0" color-interpolation-filters="sRGB"/></filter><g/><clipPath id="7353e10a65"><path d="M 50 39.074219 L 71.15625 39.074219 L 71.15625 63.375 L 50 63.375 Z M 50 39.074219 " clip-rule="nonzero"/></clipPath><clipPath id="fc96dcc524"><path d="M 71.019531 43.996094 L 60.511719 39.234375 L 50.003906 43.996094 L 50.003906 63.320312 L 60.511719 58.5625 L 71.019531 63.320312 Z M 71.019531 43.996094 " clip-rule="nonzero"/></clipPath><clipPath id="291e57b571"><path d="M 0 0.0859375 L 21.074219 0.0859375 L 21.074219 24.375 L 0 24.375 Z M 0 0.0859375 " clip-rule="nonzero"/></clipPath><clipPath id="1ee486590b"><path d="M 21.019531 4.996094 L 10.511719 0.234375 L 0.00390625 4.996094 L 0.00390625 24.320312 L 10.511719 19.5625 L 21.019531 24.320312 Z M 21.019531 4.996094 " clip-rule="nonzero"/></clipPath><clipPath id="14e82a39a0"><rect x="0" width="22" y="0" height="25"/></clipPath><clipPath id="3a9d4b43dd"><path d="M 49.929688 10.15625 L 71.15625 10.15625 L 71.15625 34.457031 L 49.929688 34.457031 Z M 49.929688 10.15625 " clip-rule="nonzero"/></clipPath><clipPath id="7b43b116d4"><path d="M 71.019531 15.058594 L 60.496094 10.296875 L 49.988281 15.058594 L 49.988281 34.367188 L 60.496094 29.605469 L 71.003906 34.367188 Z M 71.019531 15.058594 " clip-rule="nonzero"/></clipPath><clipPath id="f0b3037d98"><path d="M 0.972656 0.15625 L 22.074219 0.15625 L 22.074219 24.457031 L 0.972656 24.457031 Z M 0.972656 0.15625 " clip-rule="nonzero"/></clipPath><clipPath id="8de367b7b7"><path d="M 22.019531 5.058594 L 11.496094 0.296875 L 0.988281 5.058594 L 0.988281 24.367188 L 11.496094 19.605469 L 22.003906 24.367188 Z M 22.019531 5.058594 " clip-rule="nonzero"/></clipPath><clipPath id="c677906bb7"><rect x="0" width="23" y="0" height="25"/></clipPath><clipPath id="081ca0d16f"><path d="M 7.785156 10.15625 L 16.707031 10.15625 L 16.707031 34.457031 L 7.785156 34.457031 Z M 7.785156 10.15625 " clip-rule="nonzero"/></clipPath><clipPath id="f023541a78"><path d="M 7.925781 15.058594 L 7.925781 34.367188 L 16.585938 10.3125 Z M 7.925781 15.058594 " clip-rule="nonzero"/></clipPath><clipPath id="0dc502b017"><path d="M 0.785156 0.3125 L 9.640625 0.3125 L 9.640625 24.457031 L 0.785156 24.457031 Z M 0.785156 0.3125 " clip-rule="nonzero"/></clipPath><clipPath id="70c3d70518"><path d="M 0.925781 5.058594 L 0.925781 24.367188 L 9.585938 0.3125 Z M 0.925781 5.058594 " clip-rule="nonzero"/></clipPath><clipPath id="35fcab74e4"><rect x="0" width="10" y="0" height="25"/></clipPath><clipPath id="4e1829b6f7"><path d="M 20.089844 10.15625 L 29 10.15625 L 29 34.457031 L 20.089844 34.457031 Z M 20.089844 10.15625 " clip-rule="nonzero"/></clipPath><clipPath id="20803adc44"><path d="M 20.296875 10.3125 L 28.957031 34.367188 L 28.957031 15.058594 Z M 20.296875 10.3125 " clip-rule="nonzero"/></clipPath><clipPath id="727127ca91"><path d="M 0.238281 0.3125 L 9 0.3125 L 9 24.457031 L 0.238281 24.457031 Z M 0.238281 0.3125 " clip-rule="nonzero"/></clipPath><clipPath id="f03daadcf3"><path d="M 0.296875 0.3125 L 8.957031 24.367188 L 8.957031 5.058594 Z M 0.296875 0.3125 " clip-rule="nonzero"/></clipPath><clipPath id="79f1d546b2"><rect x="0" width="9" y="0" height="25"/></clipPath><clipPath id="de39319b80"><path d="M 7.785156 10.15625 L 16.707031 10.15625 L 16.707031 34.457031 L 7.785156 34.457031 Z M 7.785156 10.15625 " clip-rule="nonzero"/></clipPath><clipPath id="d7b5aaceef"><path d="M 16.648438 10.296875 L 16.648438 29.621094 L 7.925781 34.367188 L 16.585938 10.3125 Z M 16.648438 10.296875 " clip-rule="nonzero"/></clipPath><clipPath id="2ee5b2da46"><path d="M 0.785156 0.15625 L 9.707031 0.15625 L 9.707031 24.457031 L 0.785156 24.457031 Z M 0.785156 0.15625 " clip-rule="nonzero"/></clipPath><clipPath id="1a0f061e9b"><path d="M 9.648438 0.296875 L 9.648438 19.621094 L 0.925781 24.367188 L 9.585938 0.3125 Z M 9.648438 0.296875 " clip-rule="nonzero"/></clipPath><clipPath id="46e8cc2aed"><rect x="0" width="10" y="0" height="25"/></clipPath><clipPath id="625d8d18fd"><path d="M 20.089844 10.15625 L 29 10.15625 L 29 34.457031 L 20.089844 34.457031 Z M 20.089844 10.15625 " clip-rule="nonzero"/></clipPath><clipPath id="00a868d360"><path d="M 28.957031 34.367188 L 20.234375 29.621094 L 20.234375 10.296875 L 20.296875 10.3125 Z M 28.957031 34.367188 " clip-rule="nonzero"/></clipPath><clipPath id="ad3c086414"><path d="M 0.0898438 0.15625 L 9 0.15625 L 9 24.457031 L 0.0898438 24.457031 Z M 0.0898438 0.15625 " clip-rule="nonzero"/></clipPath><clipPath id="a3feb23ee9"><path d="M 8.957031 24.367188 L 0.234375 19.621094 L 0.234375 0.296875 L 0.296875 0.3125 Z M 8.957031 24.367188 " clip-rule="nonzero"/></clipPath><clipPath id="26eab69134"><rect x="0" width="9" y="0" height="25"/></clipPath><clipPath id="d3613326c3"><path d="M 7.785156 43.070312 L 50 43.070312 L 50 84.601562 L 7.785156 84.601562 Z M 7.785156 43.070312 " clip-rule="nonzero"/></clipPath><clipPath id="09da0acbf3"><path d="M 28.957031 60.707031 L 28.957031 43.214844 L 7.925781 43.214844 L 7.925781 63.429688 C 7.925781 74.988281 17.289062 84.355469 28.847656 84.355469 L 49.988281 84.355469 L 49.988281 63.320312 L 31.554688 63.320312 C 30.117188 63.320312 28.941406 62.148438 28.941406 60.707031 " clip-rule="nonzero"/></clipPath><clipPath id="ec84dcdb76"><path d="M 0.785156 0.164062 L 43 0.164062 L 43 41.410156 L 0.785156 41.410156 Z M 0.785156 0.164062 " clip-rule="nonzero"/></clipPath><clipPath id="8533f5226c"><path d="M 21.957031 17.707031 L 21.957031 0.214844 L 0.925781 0.214844 L 0.925781 20.429688 C 0.925781 31.988281 10.289062 41.355469 21.847656 41.355469 L 42.988281 41.355469 L 42.988281 20.320312 L 24.554688 20.320312 C 23.117188 20.320312 21.941406 19.148438 21.941406 17.707031 " clip-rule="nonzero"/></clipPath><clipPath id="4dcb321d65"><rect x="0" width="43" y="0" height="42"/></clipPath><mask id="7686177458"><g filter="url(#1ce93f57b4)"><rect x="-51.975" width="623.7" fill="#000000" y="-59.249998" height="710.999979" fill-opacity="0.21"/></g></mask><clipPath id="ff5ddcd752"><path d="M 48 5 L 447 5 L 447 516.941406 L 48 516.941406 Z M 48 5 " clip-rule="nonzero"/></clipPath><clipPath id="9b08f19af9"><path d="M 49 0.660156 L 445 0.660156 L 445 516.941406 L 49 516.941406 Z M 49 0.660156 " clip-rule="nonzero"/></clipPath><clipPath id="5b049d0843"><path d="M 0.308594 73 L 470.160156 73 L 470.160156 474 L 0.308594 474 Z M 0.308594 73 " clip-rule="nonzero"/></clipPath><clipPath id="56618a8ced"><rect x="0" width="471" y="0" height="517"/></clipPath><clipPath id="1a12e6f0bb"><rect x="0" width="396" y="0" height="60"/></clipPath></defs><g clip-path="url(#7353e10a65)"><g clip-path="url(#fc96dcc524)"><g transform="matrix(1, 0, 0, 1, 50, 39)"><g clip-path="url(#14e82a39a0)"><g clip-path="url(#291e57b571)"><g clip-path="url(#1ee486590b)"><rect x="-164.345" width="748.44" fill="#ffffff" height="853.199975" y="-169.349996" fill-opacity="1"/></g></g></g></g></g></g><g clip-path="url(#3a9d4b43dd)"><g clip-path="url(#7b43b116d4)"><g transform="matrix(1, 0, 0, 1, 49, 10)"><g clip-path="url(#c677906bb7)"><g clip-path="url(#f0b3037d98)"><g clip-path="url(#8de367b7b7)"><rect x="-163.345" width="748.44" fill="#ffffff" height="853.199975" y="-140.349996" fill-opacity="1"/></g></g></g></g></g></g><g clip-path="url(#081ca0d16f)"><g clip-path="url(#f023541a78)"><g transform="matrix(1, 0, 0, 1, 7, 10)"><g clip-path="url(#35fcab74e4)"><g clip-path="url(#0dc502b017)"><g clip-path="url(#70c3d70518)"><rect x="-121.345" width="748.44" fill="#ffffff" height="853.199975" y="-140.349996" fill-opacity="1"/></g></g></g></g></g></g><g clip-path="url(#4e1829b6f7)"><g clip-path="url(#20803adc44)"><g transform="matrix(1, 0, 0, 1, 20, 10)"><g clip-path="url(#79f1d546b2)"><g clip-path="url(#727127ca91)"><g clip-path="url(#f03daadcf3)"><rect x="-134.345" width="748.44" fill="#ffffff" height="853.199975" y="-140.349996" fill-opacity="1"/></g></g></g></g></g></g><g clip-path="url(#de39319b80)"><g clip-path="url(#d7b5aaceef)"><g transform="matrix(1, 0, 0, 1, 7, 10)"><g clip-path="url(#46e8cc2aed)"><g clip-path="url(#2ee5b2da46)"><g clip-path="url(#1a0f061e9b)"><rect x="-121.345" width="748.44" fill="#fcb625" height="853.199975" y="-140.349996" fill-opacity="1"/></g></g></g></g></g></g><g clip-path="url(#625d8d18fd)"><g clip-path="url(#00a868d360)"><g transform="matrix(1, 0, 0, 1, 20, 10)"><g clip-path="url(#26eab69134)"><g clip-path="url(#ad3c086414)"><g clip-path="url(#a3feb23ee9)"><rect x="-134.345" width="748.44" fill="#fcb625" height="853.199975" y="-140.349996" fill-opacity="1"/></g></g></g></g></g></g><g clip-path="url(#d3613326c3)"><g clip-path="url(#09da0acbf3)"><g transform="matrix(1, 0, 0, 1, 7, 43)"><g clip-path="url(#4dcb321d65)"><g clip-path="url(#ec84dcdb76)"><g clip-path="url(#8533f5226c)"><rect x="-121.345" width="748.44" fill="#ffffff" height="853.199975" y="-173.349996" fill-opacity="1"/></g></g></g></g></g></g><g mask="url(#7686177458)"><g transform="matrix(1, 0, 0, 1, 26, 72)"><g clip-path="url(#56618a8ced)"><path fill="#ffffff" d="M 41.449219 512.195312 L 41.058594 511.710938 C 60.757812 495.921875 74.125 471.058594 81.925781 435.703125 C 84.511719 423.96875 86.402344 411.878906 88.226562 400.183594 C 90.867188 383.273438 93.597656 365.785156 98.496094 349.085938 C 102.324219 336.019531 106.761719 326.164062 112.453125 318.074219 C 120.40625 306.773438 132.074219 297.597656 146.199219 291.550781 C 159.324219 285.933594 174.199219 283.089844 189.21875 283.328125 C 220.402344 283.828125 250.246094 296.265625 272.761719 307.042969 C 278.429688 309.757812 284.152344 312.617188 289.683594 315.382812 C 304.976562 323.027344 320.789062 330.929688 337.191406 336.597656 C 363.074219 345.539062 386.46875 347.269531 406.71875 341.722656 C 431.273438 335.003906 450.242188 316.671875 455.042969 295.019531 C 458.398438 279.878906 455.316406 262.480469 445.882812 243.296875 C 441.777344 234.949219 436.851562 226.855469 432.089844 219.03125 C 427.6875 211.792969 423.136719 204.3125 419.230469 196.632812 C 413.503906 185.332031 409.089844 173.535156 405.992188 161.246094 C 402.894531 148.960938 401.1875 136.480469 400.871094 123.8125 C 400.679688 115.730469 400.988281 105.253906 405.09375 95.90625 C 408.988281 87.035156 416.066406 79.792969 422.476562 73.878906 C 434.113281 63.140625 446.710938 53.683594 460.269531 45.503906 L 460.589844 46.035156 C 447.066406 54.195312 434.503906 63.625 422.898438 74.332031 C 416.535156 80.203125 409.511719 87.390625 405.664062 96.15625 C 401.605469 105.390625 401.304688 115.78125 401.492188 123.796875 C 401.808594 136.417969 403.507812 148.851562 406.597656 161.09375 C 409.683594 173.335938 414.082031 185.089844 419.789062 196.351562 C 423.679688 204.007812 428.226562 211.480469 432.625 218.707031 C 437.390625 226.546875 442.324219 234.652344 446.441406 243.023438 C 455.941406 262.335938 459.039062 279.875 455.652344 295.152344 C 450.800781 317.027344 431.660156 335.542969 406.882812 342.320312 C 386.511719 347.898438 362.996094 346.167969 336.988281 337.183594 C 320.546875 331.503906 304.714844 323.59375 289.40625 315.9375 C 283.875 313.175781 278.15625 310.316406 272.492188 307.605469 C 250.035156 296.851562 220.273438 284.449219 189.207031 283.953125 C 157.5 283.445312 128.28125 296.65625 112.960938 318.433594 C 107.3125 326.46875 102.902344 336.261719 99.09375 349.265625 C 94.207031 365.925781 91.480469 383.390625 88.84375 400.28125 C 87.015625 411.984375 85.125 424.089844 82.53125 435.839844 C 74.699219 471.335938 61.261719 496.3125 41.449219 512.195312 Z M 41.449219 512.195312 " fill-opacity="1" fill-rule="nonzero"/><path fill="#ffffff" d="M 42.226562 512.628906 L 41.867188 512.121094 C 61.695312 498.15625 76.179688 474.074219 84.921875 440.542969 C 87.84375 429.277344 89.980469 417.90625 91.855469 407.296875 C 92.222656 405.222656 92.585938 403.148438 92.949219 401.074219 C 95.566406 386.121094 98.273438 370.660156 102.507812 355.800781 C 106.1875 342.894531 110.34375 333.136719 115.585938 325.082031 C 121.789062 315.570312 130.164062 307.535156 140.484375 301.199219 C 154.328125 292.683594 170.53125 287.816406 187.339844 287.121094 C 190.808594 286.976562 194.367188 286.992188 197.917969 287.175781 C 221.820312 288.40625 244.855469 297.277344 262.253906 304.871094 C 264.605469 305.898438 267.0625 306.992188 269.554688 308.128906 C 274.574219 310.410156 279.644531 312.796875 284.550781 315.101562 C 300.300781 322.507812 316.582031 330.167969 333.414062 335.515625 C 358.914062 343.609375 381.9375 344.941406 401.851562 339.480469 C 422.167969 333.90625 439.421875 319.835938 446.886719 302.757812 C 447.980469 300.265625 448.867188 297.699219 449.550781 295.0625 C 453.265625 280.71875 450.9375 263.921875 442.621094 245.136719 C 438.449219 235.703125 432.96875 226.597656 427.667969 217.792969 C 426.875 216.472656 426.082031 215.148438 425.289062 213.828125 C 421.253906 207.082031 418.328125 201.832031 415.800781 196.796875 C 403.988281 173.265625 397.636719 147.289062 397.433594 121.675781 C 397.417969 119.945312 397.4375 118.347656 397.480469 116.789062 C 397.765625 107.164062 399.238281 99.597656 402.121094 92.976562 C 406.214844 83.5625 413.265625 76.074219 419.621094 69.992188 C 431.398438 58.667969 444.414062 49.011719 458.664062 41.015625 L 458.964844 41.558594 C 444.761719 49.527344 431.792969 59.152344 420.050781 70.441406 C 413.738281 76.480469 406.742188 83.914062 402.691406 93.226562 C 399.84375 99.769531 398.382812 107.261719 398.101562 116.804688 C 398.058594 118.359375 398.039062 119.949219 398.054688 121.667969 C 398.257812 147.191406 404.585938 173.074219 416.355469 196.519531 C 418.875 201.539062 421.796875 206.777344 425.824219 213.507812 C 426.613281 214.832031 427.40625 216.152344 428.203125 217.472656 C 433.511719 226.292969 439 235.417969 443.191406 244.882812 C 451.5625 263.800781 453.90625 280.734375 450.15625 295.214844 C 449.460938 297.882812 448.5625 300.480469 447.457031 303.007812 C 439.921875 320.25 422.507812 334.453125 402.015625 340.074219 C 381.988281 345.570312 358.84375 344.234375 333.226562 336.105469 C 316.355469 330.746094 300.054688 323.078125 284.289062 315.664062 C 279.382812 313.359375 274.3125 310.972656 269.296875 308.691406 C 266.808594 307.558594 264.351562 306.464844 262.003906 305.4375 C 244.65625 297.867188 221.691406 289.019531 197.886719 287.792969 C 194.355469 287.613281 190.816406 287.59375 187.367188 287.738281 C 170.902344 288.417969 154.371094 293.386719 140.8125 301.726562 C 130.570312 308.015625 122.257812 315.984375 116.109375 325.421875 C 110.898438 333.417969 106.765625 343.125 103.105469 355.96875 C 98.878906 370.800781 96.175781 386.246094 93.5625 401.183594 C 93.199219 403.257812 92.832031 405.332031 92.46875 407.40625 C 90.589844 418.03125 88.449219 429.414062 85.523438 440.699219 C 76.742188 474.378906 62.175781 498.582031 42.226562 512.628906 Z M 42.226562 512.628906 " fill-opacity="1" fill-rule="nonzero"/><path fill="#ffffff" d="M 43 513.0625 L 42.675781 512.53125 C 62.917969 500.21875 78.136719 477.625 87.917969 445.382812 C 90.699219 436.148438 93.097656 426.179688 95.695312 413.058594 C 96.441406 409.316406 97.160156 405.5625 97.882812 401.808594 C 100.367188 388.859375 102.941406 375.464844 106.523438 362.515625 C 110.050781 349.761719 113.929688 340.09375 118.722656 332.09375 C 124.433594 322.582031 132.121094 314.34375 141.570312 307.605469 C 148.035156 302.96875 154.988281 299.238281 162.429688 296.40625 C 169.867188 293.578125 177.542969 291.75 185.460938 290.917969 C 188.863281 290.5625 192.277344 290.386719 195.699219 290.382812 C 218.171875 290.390625 240.367188 298.359375 259.121094 306.15625 C 261.402344 307.105469 263.769531 308.105469 266.347656 309.214844 C 270.601562 311.046875 274.90625 312.945312 279.070312 314.78125 C 295.390625 321.972656 312.261719 329.410156 329.632812 334.433594 C 354.742188 341.683594 377.402344 342.625 396.984375 337.238281 C 416.886719 331.765625 433.429688 318.746094 441.234375 302.417969 C 442.363281 300.054688 443.308594 297.617188 444.0625 295.105469 C 448.164062 281.445312 446.582031 265.253906 439.363281 246.976562 C 435.300781 236.695312 429.410156 226.832031 423.710938 217.292969 L 422.066406 214.539062 C 418.070312 207.824219 414.988281 202.242188 412.371094 196.964844 C 400.167969 172.375 393.816406 145.601562 393.996094 119.539062 C 394.007812 117.769531 394.050781 116.125 394.125 114.515625 C 394.558594 104.890625 396.203125 96.886719 399.148438 90.054688 C 403.476562 80.015625 410.839844 71.984375 416.769531 66.109375 C 428.980469 54 442.535156 44.050781 457.058594 36.535156 L 457.34375 37.085938 C 442.878906 44.570312 429.375 54.484375 417.203125 66.550781 C 411.316406 72.386719 404.003906 80.359375 399.71875 90.300781 C 396.800781 97.0625 395.175781 104.992188 394.742188 114.542969 C 394.671875 116.144531 394.628906 117.78125 394.617188 119.542969 C 394.4375 145.503906 400.765625 172.183594 412.925781 196.6875 C 415.539062 201.949219 418.609375 207.519531 422.597656 214.21875 L 424.242188 216.972656 C 429.953125 226.535156 435.859375 236.417969 439.9375 246.746094 C 447.210938 265.160156 448.796875 281.488281 444.65625 295.285156 C 443.894531 297.824219 442.9375 300.292969 441.792969 302.683594 C 433.910156 319.175781 417.222656 332.3125 397.148438 337.835938 C 377.449219 343.253906 354.679688 342.308594 329.460938 335.027344 C 312.046875 329.992188 295.15625 322.546875 278.820312 315.347656 C 274.65625 313.511719 270.351562 311.613281 266.101562 309.785156 C 263.523438 308.675781 261.160156 307.675781 258.878906 306.726562 C 240.1875 298.957031 218.058594 291.011719 195.699219 291.003906 C 192.296875 291.007812 188.90625 291.183594 185.523438 291.535156 C 177.660156 292.359375 170.035156 294.179688 162.648438 296.988281 C 155.257812 299.796875 148.351562 303.507812 141.929688 308.113281 C 132.550781 314.800781 124.921875 322.976562 119.257812 332.414062 C 114.488281 340.367188 110.632812 349.984375 107.121094 362.679688 C 103.546875 375.609375 100.976562 388.988281 98.492188 401.925781 C 97.773438 405.679688 97.050781 409.433594 96.304688 413.179688 C 93.703125 426.320312 91.300781 436.304688 88.511719 445.5625 C 78.6875 477.957031 63.375 500.667969 43 513.0625 Z M 43 513.0625 " fill-opacity="1" fill-rule="nonzero"/><path fill="#ffffff" d="M 43.773438 513.492188 L 43.488281 512.941406 C 63.859375 502.472656 80.257812 480.785156 90.914062 450.222656 C 94.066406 441.097656 96.886719 430.828125 99.535156 418.820312 C 100.746094 413.355469 101.902344 407.773438 103.015625 402.375 C 105.269531 391.46875 107.597656 380.191406 110.535156 369.230469 C 113.964844 356.441406 117.457031 347.148438 121.859375 339.105469 C 127.191406 329.421875 134.121094 321.054688 142.648438 314.015625 C 154.769531 303.890625 168.921875 297.214844 183.578125 294.710938 C 186.855469 294.148438 190.15625 293.773438 193.480469 293.59375 C 214.683594 292.457031 236.050781 299.574219 255.984375 307.4375 C 258.375 308.382812 260.761719 309.335938 263.140625 310.300781 C 266.476562 311.65625 269.808594 313.019531 273.132812 314.394531 C 290.171875 321.40625 307.785156 328.652344 325.851562 333.351562 C 350.554688 339.757812 372.851562 340.3125 392.113281 334.992188 C 411.308594 329.699219 427.558594 317.394531 435.578125 302.074219 C 436.75 299.839844 437.746094 297.53125 438.570312 295.148438 C 443.09375 282.070312 442.261719 266.480469 436.101562 248.8125 C 432.28125 237.863281 426.085938 227.433594 420.09375 217.347656 L 418.84375 215.246094 C 414.820312 208.457031 411.671875 202.699219 408.941406 197.132812 C 396.355469 171.484375 390.003906 143.914062 390.558594 117.402344 C 390.597656 115.625 390.664062 113.890625 390.765625 112.242188 C 391.347656 102.492188 393.117188 94.277344 396.175781 87.128906 C 399.671875 78.945312 405.308594 71.035156 413.914062 62.226562 C 426.382812 49.449219 440.359375 39.292969 455.453125 32.046875 L 455.722656 32.609375 C 440.695312 39.824219 426.777344 49.933594 414.359375 62.660156 C 405.808594 71.414062 400.210938 79.265625 396.746094 87.371094 C 393.71875 94.453125 391.964844 102.601562 391.382812 112.277344 C 391.285156 113.917969 391.21875 115.648438 391.179688 117.414062 C 390.625 143.828125 396.957031 171.296875 409.496094 196.855469 C 412.222656 202.414062 415.363281 208.152344 419.375 214.925781 L 420.625 217.03125 C 426.632812 227.144531 432.84375 237.597656 436.683594 248.609375 C 442.894531 266.414062 443.726562 282.136719 439.160156 295.351562 C 438.324219 297.761719 437.3125 300.101562 436.128906 302.359375 C 428.03125 317.832031 411.636719 330.253906 392.277344 335.589844 C 372.902344 340.9375 350.503906 340.386719 325.695312 333.949219 C 307.585938 329.242188 289.953125 321.984375 272.898438 314.96875 C 269.570312 313.597656 266.238281 312.234375 262.90625 310.875 C 260.53125 309.914062 258.148438 308.960938 255.753906 308.015625 C 235.886719 300.175781 214.597656 293.082031 193.511719 294.210938 C 190.214844 294.390625 186.9375 294.761719 183.683594 295.324219 C 169.136719 297.808594 155.082031 304.4375 143.046875 314.488281 C 134.582031 321.480469 127.699219 329.785156 122.402344 339.402344 C 118.027344 347.398438 114.550781 356.648438 111.136719 369.386719 C 108.203125 380.332031 105.875 391.601562 103.625 402.496094 C 102.507812 407.898438 101.355469 413.484375 100.144531 418.953125 C 97.488281 430.984375 94.664062 441.277344 91.5 450.425781 C 80.792969 481.144531 64.289062 502.949219 43.773438 513.492188 Z M 43.773438 513.492188 " fill-opacity="1" fill-rule="nonzero"/><path fill="#ffffff" d="M 44.542969 513.925781 L 44.300781 513.351562 C 70.5625 502.296875 85.773438 475.550781 93.910156 455.0625 C 97.496094 445.949219 100.59375 435.980469 103.375 424.582031 C 105.152344 417.339844 106.773438 409.917969 108.339844 402.738281 C 110.261719 393.9375 112.246094 384.832031 114.550781 375.941406 C 116.761719 367.40625 119.945312 356.300781 124.992188 346.117188 C 129.78125 336.488281 136.023438 327.925781 143.730469 320.425781 C 154.957031 309.417969 168.085938 301.835938 181.695312 298.507812 C 184.84375 297.734375 188.035156 297.164062 191.257812 296.800781 C 211.332031 294.582031 232.722656 301.21875 252.847656 308.71875 C 255.214844 309.601562 257.578125 310.492188 259.933594 311.390625 C 262.152344 312.234375 264.367188 313.078125 266.582031 313.929688 C 284.539062 320.800781 303.101562 327.90625 322.070312 332.269531 C 346.355469 337.839844 368.28125 338 387.242188 332.75 C 406.023438 327.558594 421.582031 316.25 429.929688 301.730469 C 431.136719 299.628906 432.1875 297.449219 433.082031 295.191406 C 438.074219 282.601562 437.992188 267.617188 432.839844 250.652344 C 429.347656 239.164062 422.933594 228.316406 416.726562 217.824219 L 415.621094 215.953125 C 411.628906 209.191406 408.320312 203.089844 405.507812 197.296875 C 392.554688 170.605469 386.195312 142.238281 387.121094 115.265625 C 387.183594 113.445312 387.28125 111.660156 387.40625 109.96875 C 388.136719 100.105469 390.03125 91.679688 393.203125 84.203125 C 396.824219 75.667969 402.664062 67.207031 411.0625 58.34375 C 423.769531 44.910156 438.164062 34.554688 453.851562 27.566406 L 454.101562 28.132812 C 438.492188 35.089844 424.164062 45.398438 411.511719 58.769531 C 403.167969 67.582031 397.367188 75.980469 393.773438 84.445312 C 390.628906 91.859375 388.75 100.21875 388.027344 110.011719 C 387.902344 111.699219 387.808594 113.472656 387.742188 115.289062 C 386.820312 142.160156 393.15625 170.425781 406.070312 197.027344 C 408.875 202.804688 412.171875 208.890625 416.15625 215.636719 L 417.261719 217.507812 C 423.488281 228.03125 429.921875 238.910156 433.433594 250.472656 C 438.632812 267.574219 438.707031 282.699219 433.660156 295.417969 C 432.757812 297.703125 431.691406 299.910156 430.46875 302.039062 C 422.042969 316.699219 406.347656 328.109375 387.410156 333.347656 C 368.351562 338.625 346.320312 338.464844 321.933594 332.871094 C 302.921875 328.5 284.335938 321.386719 266.363281 314.507812 C 264.144531 313.660156 261.929688 312.8125 259.710938 311.96875 C 257.359375 311.074219 255 310.183594 252.632812 309.300781 C 232.582031 301.824219 211.273438 295.210938 191.328125 297.417969 C 188.128906 297.777344 184.96875 298.339844 181.84375 299.109375 C 168.339844 302.410156 155.3125 309.9375 144.167969 320.867188 C 136.511719 328.320312 130.304688 336.828125 125.550781 346.394531 C 120.53125 356.523438 117.355469 367.589844 115.152344 376.097656 C 112.851562 384.976562 110.867188 394.074219 108.949219 402.871094 C 107.378906 410.054688 105.761719 417.480469 103.980469 424.730469 C 101.191406 436.152344 98.085938 446.148438 94.488281 455.289062 C 86.308594 475.890625 71.003906 502.785156 44.542969 513.925781 Z M 44.542969 513.925781 " fill-opacity="1" fill-rule="nonzero"/><path fill="#ffffff" d="M 45.3125 514.355469 L 45.117188 513.765625 C 71.898438 504.945312 88.066406 479.605469 96.910156 459.902344 C 100.863281 451.019531 104.328125 441.074219 107.21875 430.34375 C 109.671875 421.269531 111.785156 411.921875 113.832031 402.878906 C 115.332031 396.246094 116.886719 389.382812 118.5625 382.660156 C 120.816406 373.640625 123.714844 363.078125 128.128906 353.132812 C 132.386719 343.539062 137.949219 334.777344 144.8125 326.839844 C 155.25 314.722656 167.023438 306.46875 179.8125 302.308594 C 182.832031 301.320312 185.90625 300.558594 189.039062 300.015625 C 208.976562 296.589844 230.824219 303.382812 249.714844 310.003906 C 252.054688 310.824219 254.394531 311.648438 256.726562 312.476562 L 259.183594 313.347656 C 278.335938 320.144531 298.140625 327.171875 318.289062 331.1875 C 342.140625 335.925781 363.703125 335.699219 382.375 330.511719 C 400.476562 325.488281 415.746094 314.875 424.277344 301.390625 C 425.523438 299.414062 426.632812 297.363281 427.597656 295.238281 C 433.113281 283.066406 433.785156 268.683594 429.582031 252.492188 C 426.484375 240.5625 419.902344 229.398438 413.539062 218.601562 L 412.398438 216.664062 C 408.375 209.820312 405 203.542969 402.078125 197.46875 C 388.757812 169.738281 382.394531 140.574219 383.6875 113.132812 C 383.773438 111.277344 383.894531 109.449219 384.050781 107.695312 C 384.90625 97.875 386.984375 88.988281 390.230469 81.28125 C 394.03125 72.257812 399.910156 63.484375 408.210938 54.460938 C 420.960938 40.582031 436.1875 29.730469 452.246094 23.082031 L 452.484375 23.65625 C 436.507812 30.269531 421.359375 41.066406 408.667969 54.882812 C 400.417969 63.851562 394.574219 72.566406 390.804688 81.519531 C 387.582031 89.167969 385.519531 97.992188 384.667969 107.75 C 384.515625 109.492188 384.394531 111.316406 384.308594 113.160156 C 383.023438 140.5 389.363281 169.558594 402.640625 197.195312 C 405.550781 203.253906 408.917969 209.519531 412.933594 216.347656 L 414.074219 218.28125 C 420.460938 229.117188 427.0625 240.320312 430.183594 252.335938 C 434.421875 268.667969 433.742188 283.1875 428.164062 295.492188 C 427.1875 297.644531 426.066406 299.722656 424.804688 301.71875 C 416.191406 315.335938 400.789062 326.046875 382.542969 331.105469 C 363.773438 336.320312 342.117188 336.550781 318.171875 331.796875 C 297.972656 327.769531 278.148438 320.734375 258.976562 313.933594 L 256.519531 313.0625 C 254.1875 312.234375 251.851562 311.410156 249.511719 310.589844 C 230.695312 303.992188 208.984375 297.222656 189.144531 300.625 C 186.042969 301.164062 182.996094 301.921875 180.003906 302.898438 C 167.328125 307.019531 155.648438 315.210938 145.285156 327.242188 C 138.460938 335.132812 132.929688 343.847656 128.699219 353.382812 C 124.304688 363.285156 121.414062 373.816406 119.167969 382.808594 C 117.492188 389.527344 115.9375 396.382812 114.4375 403.015625 C 112.390625 412.0625 110.277344 421.417969 107.820312 430.503906 C 104.921875 441.261719 101.445312 451.238281 97.480469 460.152344 C 88.582031 479.972656 72.308594 505.460938 45.3125 514.355469 Z M 45.3125 514.355469 " fill-opacity="1" fill-rule="nonzero"/><path fill="#ffffff" d="M 46.078125 514.78125 L 45.933594 514.179688 C 67.226562 509.085938 86.394531 491.527344 99.910156 464.738281 C 104.464844 455.523438 108.183594 445.976562 111.058594 436.105469 C 114.3125 425.136719 116.925781 413.757812 119.457031 402.757812 C 120.464844 398.367188 121.507812 393.832031 122.578125 389.375 C 124.855469 379.890625 127.484375 369.785156 131.265625 360.144531 C 135.011719 350.566406 139.886719 341.605469 145.894531 333.257812 C 155.328125 320.140625 166.105469 311.007812 177.925781 306.113281 C 180.8125 304.910156 183.777344 303.949219 186.816406 303.230469 C 205.734375 298.785156 226.710938 304.773438 246.578125 311.289062 L 253.515625 313.566406 C 275.035156 320.628906 294.476562 326.746094 314.507812 330.109375 C 337.902344 334.019531 359.097656 333.398438 377.507812 328.269531 C 395.207031 323.34375 409.8125 313.675781 418.625 301.046875 C 419.914062 299.199219 421.074219 297.277344 422.109375 295.277344 C 428.132812 283.640625 429.589844 269.484375 426.320312 254.332031 C 423.664062 242.027344 416.957031 230.613281 410.472656 219.578125 L 409.175781 217.371094 C 405.113281 210.4375 401.667969 203.980469 398.648438 197.632812 C 384.964844 168.871094 378.601562 138.914062 380.25 110.996094 C 380.359375 109.113281 380.507812 107.238281 380.691406 105.421875 C 381.683594 95.515625 383.890625 86.410156 387.257812 78.355469 C 391.183594 68.964844 397.273438 59.617188 405.355469 50.578125 C 418.320312 36.066406 433.980469 25.007812 450.640625 18.601562 L 450.863281 19.179688 C 434.292969 25.550781 418.71875 36.554688 405.820312 50.992188 C 397.78125 59.980469 391.730469 69.269531 387.832031 78.59375 C 384.488281 86.59375 382.292969 95.640625 381.308594 105.484375 C 381.128906 107.289062 380.980469 109.15625 380.871094 111.035156 C 379.230469 138.847656 385.570312 168.699219 399.210938 197.363281 C 402.222656 203.699219 405.660156 210.140625 409.710938 217.054688 L 411.007812 219.261719 C 417.519531 230.339844 424.25 241.792969 426.929688 254.199219 C 430.226562 269.492188 428.753906 283.796875 422.660156 295.5625 C 421.613281 297.585938 420.441406 299.53125 419.136719 301.398438 C 410.238281 314.148438 395.511719 323.902344 377.675781 328.863281 C 359.175781 334.019531 337.890625 334.644531 314.40625 330.71875 C 294.332031 327.351562 274.867188 321.222656 253.324219 314.152344 L 246.386719 311.875 C 226.601562 305.390625 205.722656 299.429688 186.957031 303.832031 C 183.949219 304.546875 181.019531 305.496094 178.164062 306.683594 C 166.453125 311.53125 155.765625 320.59375 146.398438 333.617188 C 140.421875 341.921875 135.570312 350.839844 131.84375 360.371094 C 128.078125 369.976562 125.457031 380.054688 123.179688 389.515625 C 122.113281 393.972656 121.070312 398.507812 120.0625 402.890625 C 117.53125 413.90625 114.914062 425.292969 111.652344 436.277344 C 108.769531 446.1875 105.039062 455.765625 100.464844 465.019531 C 86.867188 491.972656 67.550781 509.644531 46.078125 514.78125 Z M 46.078125 514.78125 " fill-opacity="1" fill-rule="nonzero"/><path fill="#ffffff" d="M 46.859375 515.207031 L 46.84375 515.207031 L 46.75 514.59375 L 46.769531 514.589844 C 68.4375 511.328125 88.375 495.34375 102.910156 469.578125 C 107.820312 460.738281 111.816406 451.5 114.898438 441.863281 C 119.097656 428.921875 122.183594 415.382812 125.171875 402.289062 C 125.640625 400.222656 126.117188 398.15625 126.589844 396.089844 C 128.75 386.714844 131.132812 376.761719 134.402344 367.160156 C 137.644531 357.5625 141.839844 348.402344 146.980469 339.675781 C 155.339844 325.523438 165.117188 315.511719 176.042969 309.914062 C 178.789062 308.5 181.640625 307.34375 184.59375 306.441406 C 204.023438 300.558594 226.808594 307.5 243.441406 312.570312 C 245.730469 313.265625 248.019531 313.960938 250.308594 314.648438 C 268.363281 320.089844 289.410156 326.136719 310.726562 329.027344 C 333.957031 332.160156 354.210938 331.179688 372.640625 326.023438 C 389.707031 321.257812 404.035156 312.265625 412.976562 300.699219 C 414.304688 298.980469 415.519531 297.1875 416.625 295.316406 C 423.300781 284.015625 425.527344 270.476562 423.0625 256.171875 C 420.882812 243.535156 414.070312 231.921875 407.484375 220.691406 L 405.953125 218.078125 C 401.851562 211.054688 398.339844 204.421875 395.21875 197.800781 C 381.175781 168.015625 374.8125 137.261719 376.8125 108.859375 C 376.949219 106.917969 377.125 104.996094 377.332031 103.148438 C 378.449219 93.175781 380.789062 83.851562 384.285156 75.429688 C 388.394531 65.523438 394.527344 55.855469 402.503906 46.695312 C 415.675781 31.550781 431.765625 20.289062 449.03125 14.117188 L 449.242188 14.703125 C 432.074219 20.835938 416.074219 32.039062 402.972656 47.101562 C 395.039062 56.210938 388.945312 65.824219 384.855469 75.667969 C 381.382812 84.035156 379.058594 93.304688 377.949219 103.21875 C 377.742188 105.054688 377.566406 106.96875 377.429688 108.90625 C 375.4375 137.199219 381.785156 167.84375 395.777344 197.53125 C 398.894531 204.140625 402.398438 210.757812 406.488281 217.765625 L 408.015625 220.375 C 414.632812 231.652344 421.476562 243.316406 423.671875 256.0625 C 426.164062 270.515625 423.910156 284.199219 417.15625 295.632812 C 416.039062 297.523438 414.8125 299.339844 413.46875 301.078125 C 404.445312 312.746094 390.003906 321.820312 372.804688 326.621094 C 354.292969 331.800781 333.960938 332.785156 310.644531 329.640625 C 289.28125 326.746094 268.207031 320.691406 250.128906 315.242188 C 247.839844 314.554688 245.550781 313.859375 243.261719 313.164062 C 226.703125 308.117188 204.019531 301.203125 184.773438 307.035156 C 181.855469 307.925781 179.039062 309.070312 176.324219 310.464844 C 165.507812 316.007812 155.8125 325.9375 147.515625 339.988281 C 142.394531 348.679688 138.21875 357.800781 134.992188 367.359375 C 131.730469 376.933594 129.351562 386.871094 127.195312 396.226562 C 126.722656 398.292969 126.246094 400.359375 125.777344 402.429688 C 122.789062 415.535156 119.695312 429.085938 115.492188 442.054688 C 112.398438 451.726562 108.382812 461.003906 103.453125 469.882812 C 88.820312 495.816406 68.722656 511.914062 46.859375 515.207031 Z M 46.859375 515.207031 " fill-opacity="1" fill-rule="nonzero"/><path fill="#ffffff" d="M 52.605469 515.101562 C 50.972656 515.347656 49.304688 515.523438 47.609375 515.632812 L 47.570312 515.011719 C 77.296875 513.144531 96.882812 488.777344 105.910156 474.417969 C 111.171875 465.957031 115.445312 457.027344 118.738281 447.625 C 124.03125 432.652344 127.523438 416.792969 130.601562 402.804688 L 130.726562 402.246094 C 132.773438 392.949219 134.890625 383.339844 137.539062 374.171875 C 140.484375 364.011719 144.023438 354.566406 148.066406 346.09375 C 155.378906 330.671875 163.914062 320.082031 174.160156 313.71875 C 176.761719 312.09375 179.5 310.742188 182.371094 309.65625 C 200.792969 302.75 222.703125 308.90625 240.308594 313.851562 C 242.570312 314.488281 244.835938 315.117188 247.101562 315.738281 C 264.632812 320.539062 285.453125 325.746094 306.945312 327.945312 C 329.652344 330.257812 349.546875 328.894531 367.769531 323.78125 C 379.433594 320.511719 395.761719 313.792969 407.328125 300.351562 C 408.695312 298.761719 409.96875 297.097656 411.140625 295.355469 C 418.4375 284.542969 421.511719 271.277344 419.804688 258.007812 C 418.136719 245.078125 411.230469 233.292969 404.546875 221.894531 C 403.9375 220.855469 403.332031 219.820312 402.730469 218.785156 C 398.640625 211.761719 394.960938 204.753906 391.789062 197.964844 C 377.394531 167.160156 371.027344 135.609375 373.375 106.726562 C 373.539062 104.757812 373.738281 102.789062 373.976562 100.875 C 375.144531 91.089844 377.589844 81.632812 381.3125 72.507812 C 385.617188 62.066406 391.785156 52.078125 399.648438 42.8125 C 413.023438 27.042969 429.546875 15.570312 447.425781 9.636719 L 447.621094 10.226562 C 429.847656 16.125 413.425781 27.53125 400.125 43.214844 C 392.304688 52.429688 386.167969 62.363281 381.886719 72.742188 C 378.1875 81.816406 375.753906 91.222656 374.589844 100.953125 C 374.355469 102.855469 374.152344 104.816406 373.996094 106.777344 C 371.65625 135.554688 378 166.996094 392.347656 197.703125 C 395.515625 204.476562 399.1875 211.464844 403.265625 218.472656 C 403.867188 219.507812 404.472656 220.542969 405.082031 221.578125 C 411.796875 233.03125 418.738281 244.875 420.417969 257.925781 C 422.148438 271.347656 419.035156 284.761719 411.65625 295.703125 C 410.46875 297.464844 409.183594 299.148438 407.800781 300.757812 C 396.132812 314.316406 379.683594 321.085938 367.9375 324.378906 C 349.636719 329.515625 329.664062 330.882812 306.878906 328.5625 C 285.34375 326.359375 264.492188 321.144531 246.933594 316.335938 C 244.667969 315.714844 242.402344 315.085938 240.140625 314.449219 C 222.621094 309.527344 200.816406 303.402344 182.589844 310.238281 C 179.757812 311.308594 177.054688 312.644531 174.484375 314.246094 C 164.347656 320.546875 155.886719 331.050781 148.625 346.359375 C 144.601562 354.800781 141.070312 364.214844 138.136719 374.34375 C 135.492188 383.488281 133.378906 393.089844 131.332031 402.378906 L 131.210938 402.9375 C 128.125 416.945312 124.628906 432.820312 119.324219 447.828125 C 116.015625 457.273438 111.71875 466.246094 106.433594 474.746094 C 97.863281 488.390625 79.816406 511.003906 52.605469 515.101562 Z M 52.605469 515.101562 " fill-opacity="1" fill-rule="nonzero"/><g clip-path="url(#ff5ddcd752)"><path fill="#ffffff" d="M 57.855469 515.449219 C 54.710938 515.925781 51.550781 516.125 48.375 516.054688 L 48.390625 515.433594 C 70.441406 515.945312 92.5 502.761719 108.910156 479.257812 C 114.515625 471.1875 119.070312 462.5625 122.582031 453.382812 C 127.765625 439.882812 131.144531 426.085938 134.617188 409.515625 C 135.136719 407.042969 135.652344 404.5625 136.160156 402.082031 C 137.574219 395.203125 139.039062 388.089844 140.679688 381.1875 C 143.253906 370.351562 146.027344 360.972656 149.15625 352.511719 C 155.226562 336.019531 162.789062 324.574219 172.277344 317.527344 C 174.734375 315.691406 177.359375 314.140625 180.152344 312.871094 C 197.613281 304.980469 218.570312 310.359375 237.0625 315.105469 L 237.171875 315.136719 C 239.410156 315.707031 241.648438 316.269531 243.890625 316.824219 C 266.90625 322.480469 285.742188 325.671875 303.164062 326.863281 C 325.292969 328.367188 344.835938 326.625 362.902344 321.539062 C 379.332031 316.914062 392.378906 309.667969 401.683594 300.003906 C 403.09375 298.542969 404.417969 297.007812 405.660156 295.398438 C 413.738281 284.925781 417.605469 272.300781 416.546875 259.847656 C 415.425781 246.648438 408.417969 234.703125 401.644531 223.152344 C 400.929688 221.929688 400.214844 220.710938 399.507812 219.496094 C 395.378906 212.378906 391.628906 205.191406 388.359375 198.132812 C 373.617188 166.316406 367.246094 133.96875 369.941406 104.59375 C 370.125 102.578125 370.351562 100.5625 370.617188 98.605469 C 371.339844 93.140625 372.445312 87.753906 373.925781 82.445312 C 375.410156 77.136719 377.257812 71.957031 379.472656 66.910156 C 381.6875 61.863281 384.246094 56.996094 387.148438 52.308594 C 390.050781 47.621094 393.269531 43.160156 396.800781 38.929688 C 410.375 22.535156 427.324219 10.859375 445.820312 5.15625 L 446.003906 5.75 C 427.625 11.417969 410.773438 23.027344 397.277344 39.324219 C 393.765625 43.535156 390.566406 47.972656 387.679688 52.632812 C 384.792969 57.296875 382.246094 62.136719 380.042969 67.160156 C 377.839844 72.179688 376 77.332031 374.523438 82.613281 C 373.050781 87.894531 371.953125 93.253906 371.234375 98.6875 C 370.96875 100.640625 370.742188 102.644531 370.558594 104.648438 C 367.875 133.917969 374.226562 166.152344 388.921875 197.871094 C 392.183594 204.914062 395.925781 212.085938 400.046875 219.183594 C 400.75 220.398438 401.460938 221.617188 402.179688 222.835938 C 408.992188 234.449219 416.03125 246.457031 417.164062 259.792969 C 418.238281 272.402344 414.324219 285.183594 406.152344 295.777344 C 404.894531 297.40625 403.554688 298.957031 402.128906 300.4375 C 392.75 310.183594 379.609375 317.484375 363.070312 322.136719 C 344.933594 327.246094 325.324219 328.996094 303.121094 327.484375 C 285.664062 326.292969 266.792969 323.097656 243.742188 317.429688 C 241.496094 316.875 239.253906 316.3125 237.019531 315.738281 L 236.90625 315.710938 C 218.515625 310.988281 197.667969 305.636719 180.40625 313.441406 C 177.65625 314.691406 175.070312 316.21875 172.648438 318.027344 C 163.261719 325 155.769531 336.351562 149.738281 352.730469 C 146.621094 361.167969 143.855469 370.523438 141.285156 381.332031 C 139.648438 388.226562 138.183594 395.335938 136.769531 402.210938 C 136.257812 404.6875 135.742188 407.167969 135.226562 409.644531 C 131.746094 426.242188 128.363281 440.070312 123.164062 453.605469 C 119.636719 462.832031 115.054688 471.5 109.421875 479.613281 C 95.238281 499.925781 76.851562 512.585938 57.855469 515.449219 Z M 57.855469 515.449219 " fill-opacity="1" fill-rule="nonzero"/></g><g clip-path="url(#9b08f19af9)"><path fill="#ffffff" d="M 63.585938 516.171875 C 58.785156 516.898438 53.96875 516.996094 49.140625 516.472656 L 49.207031 515.855469 C 84.445312 519.671875 113.9375 489.132812 126.425781 459.144531 C 134.503906 439.738281 138.3125 418.632812 141.992188 398.222656 C 144.332031 385.25 146.75 371.832031 150.246094 358.9375 C 156.230469 336.859375 165.285156 322.84375 177.929688 316.089844 C 194.496094 307.242188 214.867188 311.96875 232.839844 316.140625 L 234.035156 316.417969 C 284.339844 328.078125 323.742188 328.996094 358.03125 319.296875 C 374.25 314.710938 386.679688 308.289062 396.035156 299.664062 C 407.378906 289.203125 413.828125 275.003906 413.285156 261.683594 C 412.738281 248.242188 405.628906 236.136719 398.753906 224.433594 C 397.925781 223.019531 397.097656 221.613281 396.285156 220.207031 C 379.136719 190.558594 360.183594 145.003906 367.257812 96.332031 C 370.363281 74.953125 379.3125 53.851562 392.457031 36.925781 C 406.457031 18.890625 424.355469 6.355469 444.210938 0.671875 L 444.382812 1.269531 C 405.261719 12.46875 374.515625 50.707031 367.871094 96.421875 C 360.824219 144.914062 379.726562 190.332031 396.824219 219.894531 C 397.636719 221.296875 398.460938 222.707031 399.292969 224.117188 C 406.207031 235.886719 413.355469 248.058594 413.910156 261.65625 C 414.457031 275.160156 407.9375 289.539062 396.457031 300.121094 C 387.03125 308.816406 374.515625 315.285156 358.203125 319.894531 C 323.804688 329.621094 284.304688 328.707031 233.894531 317.023438 L 232.699219 316.746094 C 214.835938 312.601562 194.582031 307.902344 178.222656 316.640625 C 165.738281 323.308594 156.785156 337.195312 150.84375 359.097656 C 147.355469 371.96875 144.9375 385.371094 142.601562 398.335938 C 138.914062 418.777344 135.105469 439.914062 126.996094 459.382812 C 116.171875 485.382812 92.617188 511.796875 63.585938 516.171875 Z M 63.585938 516.171875 " fill-opacity="1" fill-rule="nonzero"/></g><path fill="#ffffff" d="M 56.398438 513.257812 C 52.992188 513.773438 49.570312 513.960938 46.125 513.820312 L 46.152344 513.195312 C 79.179688 514.601562 108.679688 484.058594 122.113281 455.089844 C 123.796875 451.460938 125.421875 447.597656 126.941406 443.609375 C 132.640625 428.6875 136.46875 413.148438 140.171875 398.121094 C 143.25 385.632812 146.433594 372.722656 150.636719 360.460938 C 153.636719 351.734375 156.917969 344.667969 160.660156 338.867188 C 165.960938 330.617188 172.167969 324.890625 179.636719 321.351562 C 195.667969 313.796875 214.386719 317.914062 232.492188 321.898438 C 233.546875 322.132812 234.59375 322.363281 235.636719 322.589844 C 256.15625 327.0625 275.863281 329.59375 294.203125 330.117188 C 317.640625 330.785156 339.304688 328.035156 358.59375 321.941406 C 374.363281 316.957031 386.351562 310.375 395.253906 301.8125 C 406.128906 291.351562 412.296875 277.304688 411.753906 264.238281 C 411.175781 250.472656 403.929688 238.085938 396.921875 226.109375 C 396.207031 224.890625 395.5 223.671875 394.792969 222.453125 C 381.195312 198.957031 372.011719 176.167969 367.488281 154.71875 C 363.402344 135.347656 362.90625 116.316406 366.011719 98.152344 C 368.078125 86.140625 371.832031 74.683594 377.273438 63.777344 C 392.113281 33.9375 417.105469 12.644531 445.855469 5.363281 L 446.007812 5.964844 C 417.4375 13.203125 392.585938 34.375 377.828125 64.050781 C 372.414062 74.90625 368.679688 86.304688 366.621094 98.257812 C 363.53125 116.34375 364.027344 135.292969 368.09375 154.589844 C 372.605469 175.976562 381.769531 198.703125 395.328125 222.140625 C 396.03125 223.355469 396.742188 224.574219 397.460938 225.796875 C 404.503906 237.839844 411.789062 250.289062 412.375 264.210938 C 412.925781 277.453125 406.6875 291.675781 395.6875 302.261719 C 386.714844 310.890625 374.644531 317.519531 358.78125 322.53125 C 339.425781 328.648438 317.691406 331.410156 294.1875 330.738281 C 275.804688 330.214844 256.0625 327.679688 235.503906 323.199219 C 234.460938 322.96875 233.414062 322.742188 232.359375 322.507812 C 214.355469 318.546875 195.742188 314.449219 179.90625 321.914062 C 172.542969 325.402344 166.417969 331.054688 161.183594 339.207031 C 157.464844 344.964844 154.210938 351.984375 151.226562 360.664062 C 147.027344 372.898438 143.851562 385.796875 140.777344 398.269531 C 137.070312 413.316406 133.234375 428.875 127.523438 443.832031 C 125.996094 447.832031 124.367188 451.710938 122.679688 455.351562 C 115.21875 471.441406 104.050781 486.109375 91.230469 496.660156 C 80.0625 505.847656 68.191406 511.480469 56.398438 513.257812 Z M 56.398438 513.257812 " fill-opacity="1" fill-rule="nonzero"/><path fill="#ffffff" d="M 49.257812 510.601562 C 47.21875 510.910156 45.171875 511.097656 43.113281 511.164062 L 43.09375 510.542969 C 74.074219 509.5625 102.941406 479.949219 117.804688 451.039062 C 119.605469 447.535156 121.375 443.808594 123.066406 439.96875 C 129.132812 426.214844 133.644531 412.175781 138.007812 398.601562 C 142.109375 385.835938 145.984375 373.78125 151.03125 361.992188 C 154.464844 353.992188 158.046875 347.550781 161.980469 342.292969 C 167.574219 334.816406 173.910156 329.6875 181.347656 326.617188 C 196.808594 320.289062 214.726562 324.050781 232.054688 327.6875 C 233.792969 328.050781 235.519531 328.414062 237.238281 328.761719 C 257 332.800781 276.640625 334.816406 295.609375 334.753906 C 318.726562 334.695312 340.105469 331.273438 359.152344 324.585938 C 374.457031 319.210938 386.007812 312.46875 394.472656 303.960938 C 405.03125 293.347656 410.769531 279.796875 410.21875 266.792969 C 409.605469 252.6875 402.214844 240.007812 395.066406 227.746094 C 394.472656 226.730469 393.882812 225.714844 393.296875 224.703125 C 378.921875 199.871094 369.804688 177.648438 365.421875 156.765625 C 361.367188 137.460938 361.144531 118.355469 364.761719 99.976562 C 367.125 88.003906 371.210938 76.648438 377.011719 65.910156 C 392.65625 36.851562 418.347656 16.492188 447.496094 10.050781 L 447.628906 10.660156 C 418.65625 17.0625 393.117188 37.304688 377.558594 66.203125 C 371.785156 76.886719 367.722656 88.183594 365.371094 100.097656 C 361.769531 118.394531 361.992188 137.414062 366.027344 156.636719 C 370.398438 177.457031 379.492188 199.617188 393.832031 224.390625 C 394.417969 225.40625 395.007812 226.417969 395.601562 227.433594 C 402.789062 239.761719 410.21875 252.507812 410.839844 266.765625 C 411.398438 279.945312 405.59375 293.660156 394.914062 304.402344 C 386.382812 312.972656 374.753906 319.769531 359.359375 325.171875 C 340.246094 331.882812 318.796875 335.316406 295.613281 335.378906 C 276.597656 335.4375 256.914062 333.417969 237.113281 329.371094 C 235.394531 329.019531 233.664062 328.65625 231.925781 328.292969 C 214.6875 324.675781 196.867188 320.9375 181.582031 327.191406 C 174.253906 330.21875 168.003906 335.28125 162.476562 342.667969 C 158.574219 347.882812 155.015625 354.28125 151.601562 362.234375 C 146.5625 373.996094 142.695312 386.039062 138.597656 398.789062 C 134.230469 412.382812 129.710938 426.4375 123.632812 440.21875 C 121.9375 444.070312 120.160156 447.808594 118.355469 451.320312 C 104.394531 478.480469 78.113281 506.253906 49.257812 510.601562 Z M 49.257812 510.601562 " fill-opacity="1" fill-rule="nonzero"/><path fill="#ffffff" d="M 41.789062 508.28125 C 41.226562 508.367188 40.667969 508.441406 40.105469 508.503906 L 40.035156 507.886719 C 68.769531 504.5625 97.636719 474.90625 113.496094 446.984375 C 115.410156 443.613281 117.328125 440.027344 119.191406 436.324219 C 125.40625 424.03125 130.40625 411.730469 135.242188 399.832031 C 140.425781 387.082031 145.320312 375.039062 151.425781 363.511719 C 155.300781 356.230469 159.1875 350.40625 163.300781 345.714844 C 169.191406 338.996094 175.65625 334.46875 183.058594 331.878906 C 197.871094 326.699219 214.917969 330.136719 231.402344 333.460938 C 233.847656 333.953125 236.378906 334.464844 238.839844 334.933594 C 258.066406 338.59375 277.460938 340.078125 297.019531 339.394531 C 319.847656 338.609375 340.941406 334.511719 359.714844 327.230469 C 374.742188 321.398438 385.539062 314.6875 393.691406 306.113281 C 403.773438 295.5 409.238281 282.097656 408.683594 269.347656 C 408.039062 254.878906 400.480469 241.882812 393.175781 229.316406 L 391.800781 226.953125 C 376.425781 200.402344 367.652344 179.382812 363.351562 158.808594 C 359.324219 139.542969 359.378906 120.359375 363.511719 101.796875 C 366.175781 89.859375 370.585938 78.609375 376.746094 68.042969 C 393.1875 39.757812 419.570312 20.328125 449.136719 14.742188 L 449.25 15.351562 C 419.863281 20.90625 393.632812 40.226562 377.285156 68.355469 C 371.15625 78.867188 366.769531 90.058594 364.117188 101.933594 C 360.003906 120.410156 359.949219 139.503906 363.960938 158.683594 C 368.246094 179.191406 377 200.148438 392.335938 226.640625 L 393.710938 229.007812 C 401.058594 241.636719 408.652344 254.699219 409.304688 269.320312 C 409.867188 282.238281 404.339844 295.804688 394.140625 306.539062 C 385.925781 315.183594 375.054688 321.941406 359.941406 327.808594 C 341.101562 335.121094 319.941406 339.226562 297.042969 340.015625 C 277.433594 340.703125 257.996094 339.210938 238.722656 335.546875 C 236.261719 335.078125 233.730469 334.566406 231.28125 334.070312 C 214.878906 330.761719 197.914062 327.34375 183.265625 332.46875 C 175.964844 335.023438 169.585938 339.488281 163.769531 346.128906 C 159.6875 350.785156 155.828125 356.566406 151.976562 363.804688 C 145.886719 375.304688 140.996094 387.332031 135.820312 400.066406 C 130.976562 411.976562 125.972656 424.289062 119.746094 436.605469 C 117.875 440.316406 115.957031 443.910156 114.035156 447.289062 C 98.410156 474.804688 70.179688 504.003906 41.789062 508.28125 Z M 41.789062 508.28125 " fill-opacity="1" fill-rule="nonzero"/><path fill="#ffffff" d="M 37.097656 505.84375 L 36.972656 505.234375 C 65.242188 499.257812 93.542969 467.933594 109.1875 442.929688 C 111.238281 439.644531 113.246094 436.292969 115.316406 432.683594 C 121.3125 422.265625 126.464844 412.015625 131.449219 402.105469 C 138.054688 388.964844 144.296875 376.554688 151.824219 365.035156 C 156.195312 358.386719 160.261719 353.332031 164.625 349.136719 C 170.796875 343.199219 177.386719 339.277344 184.769531 337.140625 C 198.933594 333.050781 215.089844 336.207031 230.710938 339.261719 C 233.914062 339.890625 237.222656 340.539062 240.4375 341.105469 C 259.027344 344.390625 278.539062 345.375 298.429688 344.03125 C 321.003906 342.523438 341.808594 337.757812 360.273438 329.871094 C 374.800781 323.667969 385.167969 316.800781 392.910156 308.261719 C 402.515625 297.652344 407.703125 284.398438 407.148438 271.898438 C 406.46875 257.046875 398.734375 243.71875 391.253906 230.832031 L 390.304688 229.199219 C 378.886719 209.484375 366.507812 185.949219 361.285156 160.851562 C 357.335938 141.871094 357.671875 122.078125 362.265625 103.617188 C 365.226562 91.714844 369.96875 80.566406 376.484375 70.175781 C 393.707031 42.648438 420.785156 24.152344 450.777344 19.429688 L 450.875 20.042969 C 421.058594 24.738281 394.136719 43.132812 377.011719 70.503906 C 370.527344 80.839844 365.8125 91.925781 362.867188 103.765625 C 358.300781 122.140625 357.960938 141.835938 361.890625 160.722656 C 367.097656 185.738281 379.449219 209.214844 390.84375 228.886719 L 391.792969 230.519531 C 399.308594 243.472656 407.082031 256.867188 407.769531 271.871094 C 408.332031 284.53125 403.085938 297.949219 393.371094 308.675781 C 385.566406 317.285156 375.128906 324.199219 360.519531 330.441406 C 341.992188 338.359375 321.113281 343.140625 298.46875 344.648438 C 278.53125 346 258.96875 345.011719 240.332031 341.714844 C 237.109375 341.148438 233.796875 340.5 230.589844 339.871094 C 215.042969 336.832031 198.960938 333.6875 184.941406 337.738281 C 177.65625 339.84375 171.152344 343.71875 165.054688 349.585938 C 160.730469 353.746094 156.691406 358.765625 152.347656 365.375 C 144.835938 376.863281 138.601562 389.261719 132.003906 402.386719 C 127.015625 412.304688 121.859375 422.558594 115.855469 432.992188 C 113.78125 436.605469 111.769531 439.96875 109.714844 443.257812 C 94.003906 468.367188 65.5625 499.824219 37.097656 505.84375 Z M 37.097656 505.84375 " fill-opacity="1" fill-rule="nonzero"/><path fill="#ffffff" d="M 34.09375 503.179688 L 33.90625 502.585938 C 59.667969 494.289062 88.238281 463.082031 104.878906 438.875 C 107.007812 435.777344 109.15625 432.558594 111.445312 429.039062 C 116.621094 421.105469 121.332031 413.378906 125.886719 405.910156 C 134.515625 391.757812 142.664062 378.394531 152.230469 366.558594 C 157.03125 360.652344 161.390625 356.203125 165.953125 352.558594 C 172.394531 347.410156 179.109375 344.089844 186.480469 342.40625 C 199.949219 339.335938 215.164062 342.246094 229.875 345.0625 C 233.878906 345.828125 238.019531 346.621094 242.039062 347.277344 C 260.171875 350.234375 279.621094 350.707031 299.835938 348.667969 C 322.195312 346.441406 342.714844 341.007812 360.835938 332.515625 C 374.839844 325.953125 384.78125 318.929688 392.125 310.410156 C 401.253906 299.808594 406.167969 286.703125 405.613281 274.453125 C 404.894531 259.1875 396.960938 245.503906 389.289062 232.269531 L 388.8125 231.449219 C 377.222656 211.449219 364.421875 188.011719 359.21875 162.894531 C 357.25 153.382812 356.417969 143.769531 356.722656 134.0625 C 357.027344 124.351562 358.457031 114.8125 361.015625 105.4375 C 364.277344 93.566406 369.347656 82.523438 376.222656 72.308594 C 394.210938 45.53125 421.984375 27.980469 452.417969 24.121094 L 452.496094 24.734375 C 422.246094 28.550781 394.628906 46.027344 376.738281 72.65625 C 369.898438 82.8125 364.859375 93.796875 361.613281 105.605469 C 359.070312 114.929688 357.644531 124.421875 357.34375 134.082031 C 357.042969 143.742188 357.867188 153.304688 359.824219 162.769531 C 365.011719 187.792969 377.78125 211.179688 389.347656 231.136719 L 389.824219 231.957031 C 397.535156 245.257812 405.507812 259.007812 406.234375 274.425781 C 406.796875 286.832031 401.828125 300.097656 392.597656 310.816406 C 385.195312 319.402344 375.1875 326.476562 361.097656 333.078125 C 342.917969 341.601562 322.328125 347.054688 299.898438 349.289062 C 279.628906 351.328125 260.128906 350.855469 241.9375 347.890625 C 237.910156 347.234375 233.765625 346.441406 229.757812 345.671875 C 215.109375 342.867188 199.957031 339.964844 186.621094 343.015625 C 179.339844 344.675781 172.707031 347.957031 166.339844 353.046875 C 161.816406 356.660156 157.484375 361.082031 152.710938 366.949219 C 143.171875 378.753906 135.03125 392.101562 126.417969 406.234375 C 121.859375 413.707031 117.144531 421.4375 111.964844 429.378906 C 109.671875 432.902344 107.523438 436.125 105.390625 439.226562 C 87.894531 464.679688 59.976562 494.84375 34.09375 503.179688 Z M 34.09375 503.179688 " fill-opacity="1" fill-rule="nonzero"/><path fill="#ffffff" d="M 31.09375 500.511719 L 30.835938 499.945312 C 59.847656 486.855469 91.546875 446.789062 100.570312 434.824219 C 102.726562 431.964844 104.949219 428.96875 107.574219 425.398438 C 110.90625 420.875 114.109375 416.441406 117.207031 412.160156 C 129.433594 395.25 139.992188 380.648438 152.636719 368.078125 C 157.855469 362.929688 162.511719 359.085938 167.285156 355.984375 C 173.984375 351.628906 180.824219 348.910156 188.195312 347.671875 C 200.898438 345.542969 215.136719 348.234375 228.886719 350.847656 C 233.738281 351.765625 238.757812 352.71875 243.640625 353.445312 C 261.390625 356.097656 280.769531 356.050781 301.246094 353.308594 C 323.410156 350.351562 343.660156 344.253906 361.394531 335.160156 C 374.863281 328.257812 384.378906 321.074219 391.34375 312.5625 C 400.121094 301.816406 404.644531 289.1875 404.078125 277.007812 C 403.320312 261.300781 395.183594 247.265625 387.316406 233.695312 C 374.242188 211.140625 362.09375 188.914062 357.148438 164.9375 C 355.191406 155.363281 354.433594 145.699219 354.875 135.9375 C 355.320312 126.175781 356.949219 116.617188 359.765625 107.261719 C 363.328125 95.414062 368.726562 84.472656 375.964844 74.441406 C 394.707031 48.398438 423.160156 31.761719 454.058594 28.808594 L 454.117188 29.425781 C 423.414062 32.375 395.109375 48.910156 376.464844 74.804688 C 369.273438 84.78125 363.90625 95.660156 360.363281 107.4375 C 357.5625 116.746094 355.9375 126.253906 355.5 135.964844 C 355.058594 145.671875 355.8125 155.289062 357.757812 164.8125 C 362.6875 188.699219 374.808594 210.878906 387.855469 233.382812 C 395.761719 247.019531 403.933594 261.121094 404.699219 276.976562 C 405.273438 289.3125 400.703125 302.089844 391.824219 312.957031 C 384.804688 321.539062 375.222656 328.769531 361.679688 335.714844 C 343.882812 344.839844 323.578125 350.960938 301.328125 353.925781 C 280.796875 356.675781 261.355469 356.722656 243.550781 354.0625 C 238.65625 353.332031 233.632812 352.378906 228.773438 351.457031 C 215.074219 348.859375 200.921875 346.167969 188.300781 348.285156 C 181.015625 349.507812 174.25 352.195312 167.625 356.503906 C 162.886719 359.585938 158.265625 363.402344 153.078125 368.523438 C 140.46875 381.050781 129.925781 395.636719 117.714844 412.523438 C 114.613281 416.808594 111.410156 421.242188 108.078125 425.765625 C 105.453125 429.339844 103.226562 432.335938 101.070312 435.199219 C 92.019531 447.195312 60.238281 487.359375 31.09375 500.511719 Z M 31.09375 500.511719 " fill-opacity="1" fill-rule="nonzero"/><path fill="#ffffff" d="M 28.089844 497.835938 L 27.769531 497.304688 C 51.269531 483.121094 80.769531 449.53125 96.265625 430.769531 L 98.851562 427.636719 C 100.488281 425.644531 102.105469 423.6875 103.703125 421.753906 C 120.0625 402.042969 135.511719 383.425781 153.050781 369.601562 C 158.660156 365.214844 163.605469 361.976562 168.617188 359.40625 C 175.558594 355.851562 182.523438 353.734375 189.910156 352.9375 C 201.8125 351.65625 214.976562 354.167969 227.707031 356.59375 C 233.46875 357.691406 239.425781 358.828125 245.242188 359.617188 C 262.90625 362.015625 281.683594 361.46875 302.652344 357.945312 C 324.691406 354.269531 344.644531 347.492188 361.957031 337.804688 C 374.867188 330.578125 383.957031 323.242188 390.5625 314.710938 C 398.855469 303.980469 403.113281 291.496094 402.542969 279.558594 C 401.742188 263.394531 393.285156 248.8125 385.824219 235.941406 C 373.207031 214.191406 360.160156 191.695312 355.082031 166.980469 C 351.167969 147.925781 352.359375 127.902344 358.523438 109.078125 C 362.410156 97.269531 368.136719 86.4375 375.703125 76.574219 C 395.195312 51.253906 424.347656 35.550781 455.703125 33.496094 L 455.742188 34.117188 C 424.574219 36.160156 395.578125 51.773438 376.195312 76.953125 C 368.671875 86.757812 362.976562 97.53125 359.113281 109.273438 C 352.980469 127.992188 351.800781 147.90625 355.691406 166.855469 C 360.75 191.472656 373.769531 213.921875 386.363281 235.632812 C 393.859375 248.558594 402.359375 263.214844 403.164062 279.527344 C 403.742188 291.613281 399.441406 304.242188 391.054688 315.089844 C 384.394531 323.6875 375.246094 331.078125 362.261719 338.347656 C 344.886719 348.070312 324.863281 354.867188 302.757812 358.558594 C 281.738281 362.09375 262.886719 362.640625 245.160156 360.230469 C 239.324219 359.441406 233.359375 358.304688 227.59375 357.203125 C 214.90625 354.785156 201.785156 352.28125 189.976562 353.554688 C 182.664062 354.339844 175.773438 356.4375 168.902344 359.960938 C 163.925781 362.511719 159.011719 365.730469 153.433594 370.089844 C 135.949219 383.871094 120.519531 402.464844 104.183594 422.148438 C 102.585938 424.078125 100.96875 426.039062 99.332031 428.027344 L 96.746094 431.164062 C 81.226562 449.957031 51.671875 483.605469 28.089844 497.835938 Z M 28.089844 497.835938 " fill-opacity="1" fill-rule="nonzero"/><path fill="#ffffff" d="M 25.085938 495.160156 L 24.703125 494.671875 C 43.363281 479.996094 69.203125 451.902344 91.960938 426.71875 C 94.847656 423.519531 97.421875 420.703125 99.835938 418.113281 C 115.914062 400.886719 133.539062 383.273438 153.464844 371.128906 C 159.28125 367.585938 164.675781 364.871094 169.957031 362.835938 C 176.925781 360.109375 184.148438 358.566406 191.625 358.207031 C 202.632812 357.679688 214.136719 359.921875 226.316406 362.292969 C 233.050781 363.605469 240.015625 364.957031 246.84375 365.789062 C 264.226562 367.914062 282.945312 366.863281 304.0625 362.589844 C 326 358.167969 345.667969 350.722656 362.515625 340.453125 C 374.855469 332.933594 383.515625 325.4375 389.78125 316.867188 C 397.589844 306.152344 401.578125 293.8125 401.007812 282.117188 C 400.230469 266.742188 392.992188 253.128906 384.328125 238.195312 L 382.507812 235.058594 C 370.382812 214.199219 357.84375 192.632812 353.015625 169.027344 C 349.105469 149.917969 350.578125 129.816406 357.273438 110.902344 C 361.464844 99.121094 367.519531 88.386719 375.441406 78.710938 C 377.9375 75.675781 380.582031 72.785156 383.382812 70.03125 C 386.183594 67.277344 389.121094 64.679688 392.195312 62.238281 C 395.273438 59.792969 398.46875 57.519531 401.785156 55.417969 C 405.101562 53.3125 408.519531 51.390625 412.039062 49.648438 C 415.558594 47.90625 419.160156 46.355469 422.84375 44.996094 C 426.527344 43.636719 430.273438 42.476562 434.082031 41.511719 C 437.890625 40.550781 441.738281 39.789062 445.625 39.234375 C 449.511719 38.679688 453.417969 38.332031 457.34375 38.1875 L 457.363281 38.808594 C 453.460938 38.949219 449.578125 39.296875 445.710938 39.851562 C 441.847656 40.402344 438.019531 41.15625 434.234375 42.113281 C 430.449219 43.074219 426.722656 44.226562 423.058594 45.578125 C 419.394531 46.933594 415.8125 48.472656 412.3125 50.207031 C 408.8125 51.9375 405.414062 53.847656 402.117188 55.941406 C 398.820312 58.035156 395.640625 60.292969 392.582031 62.722656 C 389.523438 65.152344 386.601562 67.734375 383.820312 70.472656 C 381.035156 73.210938 378.402344 76.085938 375.921875 79.105469 C 368.042969 88.726562 362.023438 99.394531 357.859375 111.109375 C 351.203125 129.917969 349.738281 149.902344 353.625 168.902344 C 358.433594 192.40625 370.941406 213.929688 383.042969 234.746094 L 384.863281 237.882812 C 393.570312 252.886719 400.84375 266.574219 401.628906 282.085938 C 402.207031 293.921875 398.175781 306.402344 390.28125 317.230469 C 383.96875 325.871094 375.25 333.417969 362.839844 340.984375 C 345.929688 351.289062 326.195312 358.765625 304.183594 363.195312 C 282.996094 367.492188 264.214844 368.539062 246.765625 366.40625 C 239.917969 365.574219 232.941406 364.214844 226.195312 362.902344 C 214.054688 360.539062 202.585938 358.304688 191.652344 358.828125 C 184.242188 359.183594 177.085938 360.710938 170.179688 363.414062 C 164.933594 365.4375 159.570312 368.136719 153.789062 371.660156 C 133.925781 383.761719 116.335938 401.34375 100.289062 418.535156 C 97.878906 421.125 95.308594 423.9375 92.417969 427.132812 C 69.648438 452.335938 43.785156 480.453125 25.085938 495.160156 Z M 25.085938 495.160156 " fill-opacity="1" fill-rule="nonzero"/><path fill="#ffffff" d="M 22.082031 492.476562 L 21.640625 492.039062 C 29.683594 483.917969 39.789062 473.121094 50.492188 461.6875 C 62.859375 448.476562 75.648438 434.816406 87.652344 422.664062 C 90.519531 419.761719 93.316406 417.003906 95.964844 414.472656 C 117.246094 394.1875 135.105469 381.289062 153.882812 372.660156 C 160.089844 369.835938 165.785156 367.742188 171.292969 366.265625 C 178.511719 364.308594 185.859375 363.378906 193.335938 363.476562 C 203.355469 363.59375 213.703125 365.683594 224.660156 367.898438 C 232.449219 369.472656 240.5 371.101562 248.441406 371.960938 C 265.582031 373.820312 284.234375 372.273438 305.46875 367.226562 C 327.34375 362.054688 346.726562 353.9375 363.074219 343.097656 C 374.824219 335.308594 383.0625 327.65625 388.996094 319.015625 C 396.324219 308.328125 400.046875 296.128906 399.472656 284.667969 C 398.65625 268.894531 391.136719 254.746094 382.832031 240.441406 C 381.699219 238.492188 380.5625 236.539062 379.417969 234.582031 C 367.695312 214.53125 355.578125 193.792969 350.949219 171.070312 C 347.042969 151.890625 348.796875 131.714844 356.027344 112.722656 C 360.519531 100.960938 366.902344 90.332031 375.183594 80.84375 C 396.140625 56.921875 426.6875 43.082031 458.984375 42.878906 L 458.988281 43.5 C 426.871094 43.703125 396.492188 57.464844 375.648438 81.253906 C 367.417969 90.6875 361.070312 101.25 356.605469 112.945312 C 349.421875 131.828125 347.671875 151.882812 351.554688 170.945312 C 356.164062 193.566406 368.257812 214.257812 379.953125 234.269531 C 381.09375 236.226562 382.234375 238.179688 383.371094 240.128906 C 391.710938 254.503906 399.269531 268.722656 400.09375 284.636719 C 400.671875 296.234375 396.914062 308.566406 389.507812 319.367188 C 383.527344 328.074219 375.238281 335.78125 363.417969 343.617188 C 347.007812 354.496094 327.558594 362.644531 305.613281 367.832031 C 284.308594 372.894531 265.585938 374.445312 248.378906 372.578125 C 240.40625 371.714844 232.339844 370.085938 224.539062 368.507812 C 213.609375 366.300781 203.289062 364.214844 193.328125 364.09375 C 185.910156 364 178.617188 364.925781 171.457031 366.867188 C 165.980469 368.332031 160.316406 370.414062 154.140625 373.222656 C 135.429688 381.824219 117.621094 394.683594 96.394531 414.917969 C 93.75 417.449219 90.957031 420.203125 88.097656 423.101562 C 76.097656 435.246094 63.3125 448.902344 50.945312 462.113281 C 40.242188 473.546875 30.128906 484.347656 22.082031 492.476562 Z M 22.082031 492.476562 " fill-opacity="1" fill-rule="nonzero"/><path fill="#ffffff" d="M 19.070312 489.792969 L 18.582031 489.410156 C 33.429688 470.273438 59.214844 440.957031 83.347656 418.613281 C 86.3125 415.867188 89.257812 413.25 92.097656 410.832031 C 113.160156 392.964844 133.503906 380.980469 154.300781 374.195312 C 160.292969 372.222656 166.40625 370.722656 172.632812 369.703125 C 180.066406 368.503906 187.539062 368.1875 195.050781 368.746094 C 203.96875 369.378906 213.074219 371.324219 222.710938 373.382812 C 231.640625 375.292969 240.871094 377.265625 250.042969 378.132812 C 266.976562 379.738281 285.566406 377.691406 306.878906 371.867188 C 328.730469 365.921875 347.824219 357.132812 363.636719 345.746094 C 374.78125 337.71875 382.59375 329.910156 388.214844 321.167969 C 395.058594 310.511719 398.511719 298.453125 397.9375 287.222656 C 397.082031 271.03125 389.269531 256.347656 381.339844 242.691406 C 379.769531 239.988281 378.175781 237.28125 376.578125 234.570312 C 365.15625 215.179688 353.347656 195.128906 348.882812 173.113281 C 344.976562 153.859375 347.015625 133.605469 354.78125 114.546875 C 359.574219 102.800781 366.289062 92.277344 374.921875 82.980469 C 396.609375 59.730469 427.84375 46.828125 460.625 47.570312 L 460.609375 48.191406 C 428.007812 47.449219 396.941406 60.285156 375.375 83.402344 C 366.796875 92.644531 360.121094 103.105469 355.355469 114.78125 C 347.636719 133.726562 345.609375 153.855469 349.488281 172.988281 C 353.933594 194.902344 365.714844 214.90625 377.113281 234.253906 C 378.710938 236.96875 380.296875 239.675781 381.875 242.378906 C 389.839844 256.097656 397.691406 270.863281 398.558594 287.191406 C 399.140625 298.550781 395.652344 310.738281 388.734375 321.503906 C 383.070312 330.3125 375.210938 338.175781 363.996094 346.25 C 348.125 357.679688 328.960938 366.5 307.042969 372.46875 C 285.65625 378.308594 266.992188 380.367188 249.984375 378.75 C 240.777344 377.878906 231.527344 375.902344 222.582031 373.992188 C 212.964844 371.9375 203.878906 369.996094 195.003906 369.367188 C 187.542969 368.820312 180.117188 369.136719 172.726562 370.316406 C 166.53125 371.332031 160.453125 372.824219 154.492188 374.785156 C 133.773438 381.546875 113.496094 393.492188 92.496094 411.304688 C 89.664062 413.714844 86.726562 416.328125 83.769531 419.070312 C 59.664062 441.390625 33.90625 470.671875 19.070312 489.792969 Z M 19.070312 489.792969 " fill-opacity="1" fill-rule="nonzero"/><path fill="#ffffff" d="M 16.058594 487.109375 L 15.527344 486.785156 C 29.292969 464.105469 54.816406 435.082031 79.042969 414.566406 C 82.117188 411.957031 85.210938 409.476562 88.230469 407.195312 C 109.910156 390.839844 131.660156 380.546875 154.71875 375.734375 C 161.070312 374.398438 167.488281 373.535156 173.96875 373.140625 C 181.59375 372.714844 189.191406 373.007812 196.761719 374.019531 C 204.449219 375.019531 212.203125 376.800781 220.410156 378.691406 C 230.585938 381.03125 241.105469 383.453125 251.644531 384.304688 C 268.628906 385.6875 286.625 383.210938 308.289062 376.511719 C 330.148438 369.769531 348.957031 360.308594 364.195312 348.394531 C 374.582031 340.273438 382.179688 332.074219 387.433594 323.324219 C 393.886719 312.546875 396.988281 300.945312 396.402344 289.777344 C 395.503906 273.164062 387.730469 258.519531 379.84375 244.941406 C 377.902344 241.597656 375.878906 238.195312 373.921875 234.90625 C 362.722656 216.070312 351.144531 196.59375 346.8125 175.15625 C 342.90625 155.820312 345.230469 135.488281 353.53125 116.371094 C 356.0625 110.554688 359.101562 105.019531 362.652344 99.765625 C 366.203125 94.511719 370.207031 89.628906 374.660156 85.113281 C 397.070312 62.527344 428.996094 50.550781 462.265625 52.261719 L 462.234375 52.882812 C 429.140625 51.183594 397.386719 63.089844 375.101562 85.550781 C 366.171875 94.601562 359.171875 104.957031 354.101562 116.617188 C 345.851562 135.617188 343.542969 155.820312 347.421875 175.035156 C 351.734375 196.367188 363.285156 215.796875 374.460938 234.589844 C 376.414062 237.878906 378.4375 241.28125 380.382812 244.628906 C 388.304688 258.269531 396.117188 272.992188 397.023438 289.746094 C 397.617188 301.035156 394.484375 312.757812 387.964844 323.644531 C 382.675781 332.460938 375.027344 340.714844 364.582031 348.882812 C 349.28125 360.84375 330.402344 370.339844 308.472656 377.101562 C 286.734375 383.828125 268.660156 386.316406 251.597656 384.925781 C 241.011719 384.066406 230.46875 381.640625 220.273438 379.296875 C 212.078125 377.410156 204.339844 375.632812 196.683594 374.632812 C 189.152344 373.628906 181.59375 373.335938 174.007812 373.761719 C 167.554688 374.152344 161.167969 375.011719 154.847656 376.34375 C 131.878906 381.136719 110.214844 391.390625 88.605469 407.691406 C 85.59375 409.96875 82.511719 412.441406 79.445312 415.039062 C 55.265625 435.515625 29.792969 464.476562 16.058594 487.109375 Z M 16.058594 487.109375 " fill-opacity="1" fill-rule="nonzero"/><path fill="#ffffff" d="M 13.039062 484.421875 L 12.476562 484.15625 C 23.734375 460.230469 48.757812 430.632812 74.738281 410.511719 C 77.929688 408.039062 81.167969 405.699219 84.359375 403.554688 C 106.542969 388.703125 130.351562 379.855469 155.132812 377.273438 C 161.839844 376.570312 168.5625 376.339844 175.304688 376.582031 C 183.09375 376.902344 190.820312 377.804688 198.472656 379.289062 C 204.773438 380.480469 211.054688 382.0625 217.707031 383.742188 C 229.246094 386.652344 241.175781 389.660156 253.242188 390.476562 C 270.074219 391.621094 288.011719 388.652344 309.695312 381.148438 C 331.59375 373.585938 350.121094 363.457031 364.753906 351.042969 C 374.523438 342.753906 381.683594 334.390625 386.648438 325.476562 C 392.613281 314.742188 395.453125 303.28125 394.867188 292.332031 C 393.925781 275.289062 385.84375 260.09375 378.347656 247.1875 C 376.085938 243.296875 373.707031 239.339844 371.410156 235.515625 C 360.371094 217.148438 348.957031 198.160156 344.742188 177.203125 C 340.890625 158.046875 343.566406 137.089844 352.28125 118.195312 C 354.960938 112.386719 358.164062 106.882812 361.882812 101.679688 C 365.601562 96.476562 369.773438 91.664062 374.402344 87.25 C 397.527344 65.308594 430.152344 54.265625 463.90625 56.953125 L 463.855469 57.574219 C 430.277344 54.898438 397.828125 65.878906 374.828125 87.699219 C 370.230469 92.089844 366.085938 96.867188 362.386719 102.039062 C 358.691406 107.210938 355.511719 112.679688 352.847656 118.449219 C 344.1875 137.226562 341.527344 158.046875 345.355469 177.078125 C 349.550781 197.929688 360.933594 216.875 371.945312 235.195312 C 374.242188 239.019531 376.621094 242.980469 378.886719 246.875 C 386.421875 259.84375 394.539062 275.117188 395.488281 292.296875 C 396.085938 303.363281 393.214844 314.941406 387.195312 325.777344 C 382.191406 334.757812 374.984375 343.175781 365.160156 351.515625 C 350.464844 363.980469 331.875 374.148438 309.898438 381.734375 C 288.136719 389.269531 270.121094 392.246094 253.203125 391.09375 C 241.082031 390.277344 229.121094 387.261719 217.558594 384.34375 C 210.914062 382.667969 204.640625 381.085938 198.359375 379.898438 C 190.734375 378.417969 183.042969 377.519531 175.28125 377.199219 C 168.570312 376.960938 161.878906 377.191406 155.199219 377.890625 C 130.519531 380.472656 106.804688 389.277344 84.707031 404.070312 C 81.527344 406.207031 78.300781 408.539062 75.121094 411.003906 C 49.207031 431.070312 24.261719 460.574219 13.039062 484.421875 Z M 13.039062 484.421875 " fill-opacity="1" fill-rule="nonzero"/><path fill="#ffffff" d="M 10.015625 481.738281 L 9.429688 481.53125 C 18.722656 455.574219 42.667969 426.109375 70.433594 406.464844 C 73.753906 404.113281 77.136719 401.910156 80.496094 399.917969 C 103.613281 386.210938 128.863281 379.113281 155.546875 378.820312 C 162.605469 378.75 169.636719 379.148438 176.640625 380.023438 C 183.84375 380.933594 191.546875 382.417969 200.1875 384.5625 C 204.925781 385.734375 209.816406 387.109375 214.550781 388.441406 C 227.585938 392.109375 241.066406 395.902344 254.847656 396.648438 C 271.550781 397.554688 289.425781 394.105469 311.105469 385.789062 C 333.074219 377.382812 351.3125 366.582031 365.316406 353.6875 C 374.335938 345.386719 381.25 336.621094 385.867188 327.628906 C 391.34375 316.953125 393.925781 305.628906 393.332031 294.886719 C 392.394531 278.246094 384.859375 263.207031 376.851562 249.4375 C 374.308594 245.0625 371.613281 240.625 369.003906 236.332031 C 358.085938 218.371094 346.796875 199.796875 342.679688 179.246094 C 338.820312 159.984375 341.789062 138.949219 351.039062 120.011719 C 353.871094 114.214844 357.230469 108.738281 361.117188 103.585938 C 365.003906 98.433594 369.34375 93.699219 374.140625 89.386719 C 397.984375 68.074219 431.304688 57.960938 465.546875 61.644531 L 465.480469 62.265625 C 431.410156 58.597656 398.269531 68.652344 374.554688 89.847656 C 369.789062 94.136719 365.472656 98.84375 361.613281 103.960938 C 357.75 109.082031 354.410156 114.523438 351.597656 120.285156 C 342.40625 139.101562 339.457031 159.996094 343.289062 179.121094 C 347.382812 199.570312 358.644531 218.09375 369.535156 236.011719 C 372.144531 240.304688 374.84375 244.742188 377.390625 249.125 C 385.433594 262.964844 393.007812 278.082031 393.953125 294.851562 C 394.550781 305.707031 391.949219 317.136719 386.421875 327.914062 C 381.769531 336.96875 374.8125 345.792969 365.738281 354.148438 C 351.675781 367.09375 333.371094 377.933594 311.328125 386.371094 C 289.566406 394.71875 271.605469 398.183594 254.8125 397.265625 C 240.964844 396.515625 227.453125 392.714844 214.382812 389.039062 C 209.65625 387.710938 204.765625 386.332031 200.039062 385.164062 C 191.421875 383.027344 183.742188 381.546875 176.5625 380.640625 C 169.585938 379.769531 162.585938 379.371094 155.554688 379.441406 C 128.980469 379.734375 103.835938 386.800781 80.8125 400.449219 C 77.46875 402.4375 74.097656 404.628906 70.792969 406.96875 C 43.125 426.546875 19.265625 455.894531 10.015625 481.738281 Z M 10.015625 481.738281 " fill-opacity="1" fill-rule="nonzero"/><path fill="#ffffff" d="M 6.988281 479.058594 L 6.386719 478.898438 C 13.707031 451.144531 37.15625 421.125 66.128906 402.414062 C 69.574219 400.191406 73.105469 398.125 76.628906 396.28125 C 100.789062 383.640625 127.480469 378.289062 155.960938 380.371094 C 163.367188 380.917969 170.703125 381.949219 177.972656 383.46875 C 186.601562 385.28125 195.292969 387.824219 201.898438 389.835938 C 204.78125 390.722656 207.726562 391.664062 210.582031 392.574219 C 225.359375 397.292969 240.644531 402.175781 256.449219 402.820312 C 273.039062 403.5 290.855469 399.5625 312.515625 390.433594 C 334.886719 381.015625 352.339844 369.863281 365.878906 356.339844 C 374.28125 347.945312 380.742188 339.011719 385.085938 329.785156 C 390.074219 319.175781 392.394531 307.992188 391.796875 297.441406 C 390.820312 280.390625 383.320312 265.375 375.359375 251.6875 C 372.566406 246.882812 369.578125 242.023438 366.683594 237.324219 C 355.847656 219.714844 344.644531 201.503906 340.613281 181.289062 C 336.746094 161.925781 340.007812 140.808594 349.792969 121.835938 C 352.777344 116.042969 356.296875 110.597656 360.347656 105.496094 C 364.402344 100.394531 368.914062 95.738281 373.882812 91.519531 C 386.300781 81.054688 401.046875 73.550781 417.710938 69.210938 C 433.523438 65.09375 450.628906 64.101562 467.1875 66.339844 L 467.105469 66.953125 C 432.542969 62.285156 398.710938 71.410156 374.28125 91.996094 C 369.34375 96.1875 364.863281 100.816406 360.835938 105.882812 C 356.808594 110.953125 353.308594 116.363281 350.34375 122.121094 C 340.625 140.96875 337.382812 161.9375 341.21875 181.167969 C 345.230469 201.269531 356.40625 219.433594 367.214844 236.996094 C 370.109375 241.699219 373.101562 246.5625 375.894531 251.371094 C 383.894531 265.128906 391.433594 280.226562 392.417969 297.402344 C 393.019531 308.058594 390.679688 319.34375 385.648438 330.046875 C 381.273438 339.339844 374.769531 348.332031 366.316406 356.777344 C 352.722656 370.359375 335.203125 381.554688 312.753906 391.003906 C 291.007812 400.171875 273.109375 404.121094 256.421875 403.441406 C 240.539062 402.792969 225.210938 397.898438 210.390625 393.164062 C 207.539062 392.253906 204.59375 391.3125 201.71875 390.425781 C 195.125 388.417969 186.453125 385.882812 177.84375 384.078125 C 170.601562 382.5625 163.292969 381.535156 155.914062 380.988281 C 127.550781 378.917969 100.972656 384.246094 76.917969 396.832031 C 73.410156 398.667969 69.894531 400.722656 66.46875 402.9375 C 37.617188 421.566406 14.269531 451.445312 6.988281 479.058594 Z M 6.988281 479.058594 " fill-opacity="1" fill-rule="nonzero"/><path fill="#ffffff" d="M 3.957031 476.378906 L 3.347656 476.265625 C 8.863281 446.191406 31.269531 416.34375 61.824219 398.367188 C 65.375 396.277344 69.019531 394.367188 72.761719 392.644531 C 97.695312 381.195312 126.605469 377.484375 156.367188 381.917969 C 164.121094 383.078125 171.765625 384.742188 179.300781 386.917969 C 187.09375 389.152344 194.601562 391.835938 203.609375 395.109375 L 206.488281 396.164062 C 223.042969 402.230469 240.160156 408.503906 258.046875 408.992188 C 274.550781 409.445312 292.308594 405.023438 313.921875 395.074219 C 336.40625 384.738281 353.582031 372.933594 366.4375 358.988281 C 374.226562 350.539062 380.238281 341.4375 384.304688 331.9375 C 388.867188 321.265625 390.875 310.515625 390.261719 299.996094 C 389.238281 282.488281 381.398438 266.886719 373.863281 253.933594 C 370.847656 248.75 367.585938 243.515625 364.433594 238.453125 C 353.652344 221.148438 342.503906 203.257812 338.542969 183.332031 C 334.671875 163.855469 338.226562 142.664062 348.542969 123.660156 C 351.683594 117.875 355.363281 112.457031 359.585938 107.40625 C 363.804688 102.355469 368.484375 97.773438 373.621094 93.660156 C 386.4375 83.472656 401.585938 76.34375 418.652344 72.472656 C 434.757812 68.816406 452.109375 68.320312 468.828125 71.03125 L 468.730469 71.644531 C 433.675781 65.957031 399.152344 74.15625 374.007812 94.144531 C 368.90625 98.234375 364.253906 102.789062 360.0625 107.808594 C 355.867188 112.824219 352.210938 118.207031 349.089844 123.957031 C 338.839844 142.832031 335.3125 163.878906 339.152344 183.214844 C 343.089844 203.027344 354.207031 220.871094 364.960938 238.125 C 368.117188 243.191406 371.378906 248.429688 374.402344 253.621094 C 381.972656 266.640625 389.851562 282.324219 390.882812 299.957031 C 391.5 310.578125 389.476562 321.417969 384.875 332.183594 C 380.78125 341.75 374.734375 350.910156 366.894531 359.410156 C 353.984375 373.417969 336.742188 385.265625 314.183594 395.640625 C 292.476562 405.628906 274.632812 410.070312 258.03125 409.613281 C 240.039062 409.121094 222.875 402.832031 206.277344 396.746094 L 203.398438 395.691406 C 194.402344 392.425781 186.902344 389.746094 179.128906 387.515625 C 171.621094 385.347656 164.003906 383.6875 156.277344 382.53125 C 126.632812 378.117188 97.84375 381.808594 73.019531 393.210938 C 69.300781 394.925781 65.671875 396.820312 62.140625 398.902344 C 31.734375 416.789062 9.441406 446.476562 3.957031 476.378906 Z M 3.957031 476.378906 " fill-opacity="1" fill-rule="nonzero"/><g clip-path="url(#5b049d0843)"><path fill="#ffffff" d="M 0.925781 473.699219 L 0.308594 473.628906 C 2.386719 455.449219 10.21875 437.742188 22.960938 422.425781 C 29.117188 415.042969 36.078125 408.523438 43.851562 402.867188 C 51.625 397.210938 59.972656 392.59375 68.894531 389.011719 C 101.929688 375.769531 141.609375 376.25 180.625 390.363281 C 187.800781 392.960938 195.019531 396.019531 201.996094 398.976562 C 220.445312 406.796875 239.523438 414.878906 259.648438 415.164062 C 281.230469 415.464844 301.765625 406.492188 315.332031 399.714844 C 337.9375 388.429688 354.839844 375.972656 367 361.636719 C 381.992188 343.964844 389.914062 322.429688 388.726562 302.546875 C 387.355469 279.492188 374.585938 259.265625 362.242188 239.699219 C 351.488281 222.667969 340.371094 205.050781 336.476562 185.375 C 330.09375 153.136719 344.917969 117.132812 373.363281 95.792969 C 386.570312 85.882812 402.125 79.128906 419.59375 75.726562 C 435.996094 72.527344 453.585938 72.527344 470.46875 75.722656 L 470.351562 76.332031 C 435.335938 69.707031 399.21875 77.167969 373.734375 96.289062 C 345.476562 117.492188 330.75 153.246094 337.085938 185.253906 C 340.957031 204.820312 352.042969 222.382812 362.765625 239.371094 C 375.15625 259 387.964844 279.296875 389.347656 302.511719 C 390.542969 322.550781 382.570312 344.246094 367.476562 362.039062 C 355.257812 376.441406 338.292969 388.945312 315.609375 400.273438 C 301.984375 407.074219 281.359375 416.089844 259.640625 415.785156 C 239.390625 415.5 220.257812 407.390625 201.753906 399.546875 C 194.785156 396.59375 187.574219 393.539062 180.414062 390.949219 C 141.542969 376.886719 102.019531 376.402344 69.125 389.589844 C 31.824219 404.539062 5.054688 437.554688 0.925781 473.699219 Z M 0.925781 473.699219 " fill-opacity="1" fill-rule="nonzero"/></g></g></g></g><g transform="matrix(1, 0, 0, 1, 86, 17)"><g clip-path="url(#1a12e6f0bb)"><g fill="#ffffff" fill-opacity="1"><g transform="translate(0.668067, 44.743402)"><g><path d="M 20.375 -15.0625 C 22.082031 -14.695312 23.453125 -13.851562 24.484375 -12.53125 C 25.515625 -11.207031 26.03125 -9.691406 26.03125 -7.984375 C 26.03125 -5.535156 25.171875 -3.59375 23.453125 -2.15625 C 21.734375 -0.71875 19.34375 0 16.28125 0 L 2.59375 0 L 2.59375 -29.375 L 15.8125 -29.375 C 18.800781 -29.375 21.140625 -28.691406 22.828125 -27.328125 C 24.515625 -25.960938 25.359375 -24.109375 25.359375 -21.765625 C 25.359375 -20.035156 24.90625 -18.597656 24 -17.453125 C 23.09375 -16.304688 21.882812 -15.507812 20.375 -15.0625 Z M 9.75 -17.484375 L 14.4375 -17.484375 C 15.601562 -17.484375 16.5 -17.738281 17.125 -18.25 C 17.757812 -18.769531 18.078125 -19.535156 18.078125 -20.546875 C 18.078125 -21.546875 17.757812 -22.3125 17.125 -22.84375 C 16.5 -23.375 15.601562 -23.640625 14.4375 -23.640625 L 9.75 -23.640625 Z M 15.015625 -5.78125 C 16.222656 -5.78125 17.148438 -6.050781 17.796875 -6.59375 C 18.453125 -7.132812 18.78125 -7.921875 18.78125 -8.953125 C 18.78125 -9.984375 18.4375 -10.789062 17.75 -11.375 C 17.070312 -11.96875 16.132812 -12.265625 14.9375 -12.265625 L 9.75 -12.265625 L 9.75 -5.78125 Z M 15.015625 -5.78125 "/></g></g></g><g fill="#ffffff" fill-opacity="1"><g transform="translate(28.240727, 44.743402)"><g><path d="M 20.875 -5.1875 L 9.921875 -5.1875 L 8.15625 0 L 0.671875 0 L 11.296875 -29.375 L 19.578125 -29.375 L 30.21875 0 L 22.640625 0 Z M 19.03125 -10.71875 L 15.40625 -21.46875 L 11.796875 -10.71875 Z M 20.296875 -35.984375 L 20.296875 -31.046875 L 10.21875 -35.28125 L 10.21875 -40.84375 Z M 20.296875 -35.984375 "/></g></g></g><g fill="#ffffff" fill-opacity="1"><g transform="translate(59.07692, 44.743402)"><g><path d="M 9.75 -29.375 L 9.75 0 L 2.59375 0 L 2.59375 -29.375 Z M 9.75 -29.375 "/></g></g></g><g fill="#ffffff" fill-opacity="1"><g transform="translate(71.419764, 44.743402)"><g/></g></g><g fill="#ffffff" fill-opacity="1"><g transform="translate(80.289877, 44.743402)"><g><path d="M 22.09375 -20.078125 C 21.5625 -21.054688 20.800781 -21.800781 19.8125 -22.3125 C 18.820312 -22.832031 17.65625 -23.09375 16.3125 -23.09375 C 14 -23.09375 12.144531 -22.332031 10.75 -20.8125 C 9.351562 -19.289062 8.65625 -17.265625 8.65625 -14.734375 C 8.65625 -12.023438 9.390625 -9.910156 10.859375 -8.390625 C 12.328125 -6.867188 14.34375 -6.109375 16.90625 -6.109375 C 18.664062 -6.109375 20.148438 -6.550781 21.359375 -7.4375 C 22.578125 -8.332031 23.460938 -9.617188 24.015625 -11.296875 L 14.9375 -11.296875 L 14.9375 -16.5625 L 30.5 -16.5625 L 30.5 -9.921875 C 29.96875 -8.128906 29.066406 -6.46875 27.796875 -4.9375 C 26.535156 -3.40625 24.925781 -2.164062 22.96875 -1.21875 C 21.019531 -0.269531 18.816406 0.203125 16.359375 0.203125 C 13.460938 0.203125 10.875 -0.425781 8.59375 -1.6875 C 6.320312 -2.957031 4.550781 -4.722656 3.28125 -6.984375 C 2.007812 -9.242188 1.375 -11.828125 1.375 -14.734375 C 1.375 -17.628906 2.007812 -20.210938 3.28125 -22.484375 C 4.550781 -24.765625 6.316406 -26.535156 8.578125 -27.796875 C 10.835938 -29.066406 13.414062 -29.703125 16.3125 -29.703125 C 19.832031 -29.703125 22.796875 -28.851562 25.203125 -27.15625 C 27.617188 -25.457031 29.21875 -23.097656 30 -20.078125 Z M 22.09375 -20.078125 "/></g></g></g><g fill="#ffffff" fill-opacity="1"><g transform="translate(112.172071, 44.743402)"><g><path d="M 9.75 -29.375 L 9.75 0 L 2.59375 0 L 2.59375 -29.375 Z M 9.75 -29.375 "/></g></g></g><g fill="#ffffff" fill-opacity="1"><g transform="translate(124.51492, 44.743402)"><g><path d="M 22.046875 0 L 19.875 -7.109375 L 9 -7.109375 L 6.828125 0 L 0 0 L 10.546875 -30 L 18.28125 -30 L 28.875 0 Z M 18.375 -12.421875 L 16.1875 -19.375 C 16.050781 -19.84375 15.867188 -20.441406 15.640625 -21.171875 C 15.421875 -21.898438 15.195312 -22.640625 14.96875 -23.390625 C 14.75 -24.140625 14.570312 -24.796875 14.4375 -25.359375 C 14.300781 -24.796875 14.113281 -24.101562 13.875 -23.28125 C 13.632812 -22.457031 13.410156 -21.675781 13.203125 -20.9375 C 12.992188 -20.195312 12.832031 -19.675781 12.71875 -19.375 L 10.59375 -12.421875 Z M 19.65625 -37.28125 C 19.65625 -35.164062 18.554688 -33.828125 16.359375 -33.265625 L 16.140625 -31.796875 L 12.59375 -31.796875 L 12.125 -34.8125 C 13.15625 -34.976562 13.851562 -35.234375 14.21875 -35.578125 C 14.582031 -35.929688 14.765625 -36.359375 14.765625 -36.859375 C 14.765625 -37.304688 14.617188 -37.640625 14.328125 -37.859375 C 14.035156 -38.085938 13.664062 -38.203125 13.21875 -38.203125 C 12.65625 -38.203125 12.148438 -38.160156 11.703125 -38.078125 C 11.265625 -37.992188 10.820312 -37.882812 10.375 -37.75 L 10.375 -41.171875 C 10.757812 -41.316406 11.285156 -41.429688 11.953125 -41.515625 C 12.628906 -41.597656 13.300781 -41.640625 13.96875 -41.640625 C 15.863281 -41.640625 17.285156 -41.257812 18.234375 -40.5 C 19.179688 -39.75 19.65625 -38.675781 19.65625 -37.28125 Z M 19.65625 -37.28125 "/></g></g></g><g fill="#ffffff" fill-opacity="1"><g transform="translate(153.384629, 44.743402)"><g><path d="M 28.875 0 L 21.71875 0 L 9.75 -18.125 L 9.75 0 L 2.59375 0 L 2.59375 -29.375 L 9.75 -29.375 L 21.71875 -11.171875 L 21.71875 -29.375 L 28.875 -29.375 Z M 28.875 0 "/></g></g></g><g fill="#ffffff" fill-opacity="1"><g transform="translate(184.848414, 44.743402)"><g><path d="M 22.09375 -20.078125 C 21.5625 -21.054688 20.800781 -21.800781 19.8125 -22.3125 C 18.820312 -22.832031 17.65625 -23.09375 16.3125 -23.09375 C 14 -23.09375 12.144531 -22.332031 10.75 -20.8125 C 9.351562 -19.289062 8.65625 -17.265625 8.65625 -14.734375 C 8.65625 -12.023438 9.390625 -9.910156 10.859375 -8.390625 C 12.328125 -6.867188 14.34375 -6.109375 16.90625 -6.109375 C 18.664062 -6.109375 20.148438 -6.550781 21.359375 -7.4375 C 22.578125 -8.332031 23.460938 -9.617188 24.015625 -11.296875 L 14.9375 -11.296875 L 14.9375 -16.5625 L 30.5 -16.5625 L 30.5 -9.921875 C 29.96875 -8.128906 29.066406 -6.46875 27.796875 -4.9375 C 26.535156 -3.40625 24.925781 -2.164062 22.96875 -1.21875 C 21.019531 -0.269531 18.816406 0.203125 16.359375 0.203125 C 13.460938 0.203125 10.875 -0.425781 8.59375 -1.6875 C 6.320312 -2.957031 4.550781 -4.722656 3.28125 -6.984375 C 2.007812 -9.242188 1.375 -11.828125 1.375 -14.734375 C 1.375 -17.628906 2.007812 -20.210938 3.28125 -22.484375 C 4.550781 -24.765625 6.316406 -26.535156 8.578125 -27.796875 C 10.835938 -29.066406 13.414062 -29.703125 16.3125 -29.703125 C 19.832031 -29.703125 22.796875 -28.851562 25.203125 -27.15625 C 27.617188 -25.457031 29.21875 -23.097656 30 -20.078125 Z M 22.09375 -20.078125 "/></g></g></g><g fill="#ffffff" fill-opacity="1"><g transform="translate(216.730613, 44.743402)"><g/></g></g><g fill="#ffffff" fill-opacity="1"><g transform="translate(225.60073, 44.743402)"><g><path d="M 13.8125 -29.375 C 16.90625 -29.375 19.613281 -28.757812 21.9375 -27.53125 C 24.269531 -26.300781 26.0625 -24.578125 27.3125 -22.359375 C 28.570312 -20.140625 29.203125 -17.582031 29.203125 -14.6875 C 29.203125 -11.8125 28.570312 -9.257812 27.3125 -7.03125 C 26.0625 -4.800781 24.269531 -3.070312 21.9375 -1.84375 C 19.613281 -0.613281 16.90625 0 13.8125 0 L 2.796875 0 L 2.796875 -11.71875 L 0.171875 -11.71875 L 0.171875 -17.65625 L 2.796875 -17.65625 L 2.796875 -29.375 Z M 13.390625 -6.109375 C 16.066406 -6.109375 18.15625 -6.859375 19.65625 -8.359375 C 21.164062 -9.867188 21.921875 -11.976562 21.921875 -14.6875 C 21.921875 -17.394531 21.164062 -19.5 19.65625 -21 C 18.15625 -22.507812 16.066406 -23.265625 13.390625 -23.265625 L 10 -23.265625 L 10 -17.65625 L 16.359375 -17.65625 L 16.359375 -11.71875 L 10 -11.71875 L 10 -6.109375 Z M 13.390625 -6.109375 "/></g></g></g><g fill="#ffffff" fill-opacity="1"><g transform="translate(256.227736, 44.743402)"><g><path d="M 9.75 -29.375 L 9.75 0 L 2.59375 0 L 2.59375 -29.375 Z M 9.75 -29.375 "/></g></g></g><g fill="#ffffff" fill-opacity="1"><g transform="translate(268.570564, 44.743402)"><g><path d="M 20.96875 0 L 3.765625 0 L 3.765625 -29.875 L 20.96875 -29.875 L 20.96875 -24.6875 L 10.078125 -24.6875 L 10.078125 -18.125 L 20.203125 -18.125 L 20.203125 -12.9375 L 10.078125 -12.9375 L 10.078125 -5.234375 L 20.96875 -5.234375 Z M 12.640625 8.78125 C 11.691406 8.78125 10.890625 8.554688 10.234375 8.109375 C 9.578125 7.671875 9.25 6.878906 9.25 5.734375 C 9.25 4.554688 9.578125 3.75 10.234375 3.3125 C 10.890625 2.882812 11.691406 2.671875 12.640625 2.671875 C 13.554688 2.671875 14.347656 2.882812 15.015625 3.3125 C 15.691406 3.75 16.03125 4.554688 16.03125 5.734375 C 16.03125 6.878906 15.691406 7.671875 15.015625 8.109375 C 14.347656 8.554688 13.554688 8.78125 12.640625 8.78125 Z M 16.28125 -39.078125 C 16.664062 -38.460938 17.171875 -37.769531 17.796875 -37 C 18.429688 -36.238281 19.082031 -35.492188 19.75 -34.765625 C 20.414062 -34.046875 21.003906 -33.4375 21.515625 -32.9375 L 21.515625 -32.390625 L 17.359375 -32.390625 C 16.640625 -32.835938 15.835938 -33.359375 14.953125 -33.953125 C 14.078125 -34.554688 13.289062 -35.234375 12.59375 -35.984375 C 11.875 -35.234375 11.09375 -34.554688 10.25 -33.953125 C 9.414062 -33.359375 8.632812 -32.835938 7.90625 -32.390625 L 3.765625 -32.390625 L 3.765625 -32.9375 C 4.265625 -33.46875 4.847656 -34.085938 5.515625 -34.796875 C 6.191406 -35.503906 6.84375 -36.238281 7.46875 -37 C 8.09375 -37.769531 8.601562 -38.460938 9 -39.078125 Z M 16.28125 -39.078125 "/></g></g></g><g fill="#ffffff" fill-opacity="1"><g transform="translate(292.001049, 44.743402)"><g><path d="M 28.875 0 L 21.71875 0 L 9.75 -18.125 L 9.75 0 L 2.59375 0 L 2.59375 -29.375 L 9.75 -29.375 L 21.71875 -11.171875 L 21.71875 -29.375 L 28.875 -29.375 Z M 28.875 0 "/></g></g></g><g fill="#ffffff" fill-opacity="1"><g transform="translate(323.464844, 44.743402)"><g/></g></g><g fill="#ffffff" fill-opacity="1"><g transform="translate(332.334961, 44.743402)"><g><path d="M 23.71875 -29.375 L 23.71875 -23.640625 L 15.9375 -23.640625 L 15.9375 0 L 8.78125 0 L 8.78125 -23.640625 L 1 -23.640625 L 1 -29.375 Z M 23.71875 -29.375 "/></g></g></g><g fill="#ffffff" fill-opacity="1"><g transform="translate(357.062486, 44.743402)"><g><path d="M 28.078125 -29.875 L 28.078125 -26.03125 C 29.078125 -26.394531 29.8125 -27.082031 30.28125 -28.09375 C 30.757812 -29.113281 31 -30.347656 31 -31.796875 L 37.15625 -31.796875 L 37.453125 -31.34375 C 37.140625 -29.832031 36.679688 -28.445312 36.078125 -27.1875 C 35.484375 -25.9375 34.566406 -24.882812 33.328125 -24.03125 C 32.085938 -23.1875 30.335938 -22.597656 28.078125 -22.265625 L 28.078125 -10.546875 C 28.078125 -8.484375 27.625 -6.617188 26.71875 -4.953125 C 25.8125 -3.296875 24.4375 -1.984375 22.59375 -1.015625 C 20.75 -0.0546875 18.445312 0.421875 15.6875 0.421875 C 11.726562 0.421875 8.71875 -0.585938 6.65625 -2.609375 C 4.59375 -4.640625 3.5625 -7.3125 3.5625 -10.625 L 3.5625 -29.875 L 9.875 -29.875 L 9.875 -11.09375 C 9.875 -8.882812 10.375 -7.296875 11.375 -6.328125 C 12.382812 -5.367188 13.878906 -4.890625 15.859375 -4.890625 C 17.921875 -4.890625 19.421875 -5.410156 20.359375 -6.453125 C 21.296875 -7.503906 21.765625 -9.0625 21.765625 -11.125 L 21.765625 -29.875 Z M 21 -37.28125 C 21 -35.164062 19.898438 -33.828125 17.703125 -33.265625 L 17.484375 -31.796875 L 13.9375 -31.796875 L 13.46875 -34.8125 C 14.5 -34.976562 15.195312 -35.234375 15.5625 -35.578125 C 15.925781 -35.929688 16.109375 -36.359375 16.109375 -36.859375 C 16.109375 -37.304688 15.960938 -37.640625 15.671875 -37.859375 C 15.378906 -38.085938 15.007812 -38.203125 14.5625 -38.203125 C 14 -38.203125 13.492188 -38.160156 13.046875 -38.078125 C 12.609375 -37.992188 12.164062 -37.882812 11.71875 -37.75 L 11.71875 -41.171875 C 12.101562 -41.316406 12.628906 -41.429688 13.296875 -41.515625 C 13.972656 -41.597656 14.644531 -41.640625 15.3125 -41.640625 C 17.207031 -41.640625 18.628906 -41.257812 19.578125 -40.5 C 20.523438 -39.75 21 -38.675781 21 -37.28125 Z M 21 -37.28125 "/></g></g></g></g></g></svg>