<svg xmlns="http://www.w3.org/2000/svg" xmlns:xlink="http://www.w3.org/1999/xlink" width="33" zoomAndPan="magnify" viewBox="0 0 24.75 27.749999" height="37" preserveAspectRatio="xMidYMid meet" version="1.0"><defs><clipPath id="2764b56b48"><path d="M 0 0.015625 L 24.503906 0.015625 L 24.503906 27.488281 L 0 27.488281 Z M 0 0.015625 " clip-rule="nonzero"/></clipPath><clipPath id="bb60b8f8f8"><path d="M 14.898438 11.09375 L 21 11.09375 L 21 18.171875 L 14.898438 18.171875 Z M 14.898438 11.09375 " clip-rule="nonzero"/></clipPath><clipPath id="db33061a31"><path d="M 20.992188 12.554688 L 17.964844 11.1875 L 14.941406 12.554688 L 14.941406 18.105469 L 17.964844 16.742188 L 20.992188 18.105469 Z M 20.992188 12.554688 " clip-rule="nonzero"/></clipPath><clipPath id="1ca23fe163"><path d="M 0.898438 0.183594 L 7 0.183594 L 7 7.171875 L 0.898438 7.171875 Z M 0.898438 0.183594 " clip-rule="nonzero"/></clipPath><clipPath id="36e7efb070"><path d="M 6.992188 1.554688 L 3.964844 0.1875 L 0.941406 1.554688 L 0.941406 7.105469 L 3.964844 5.742188 L 6.992188 7.105469 Z M 6.992188 1.554688 " clip-rule="nonzero"/></clipPath><clipPath id="90ccfbbd82"><rect x="0" width="7" y="0" height="8"/></clipPath><clipPath id="819d9f52e2"><path d="M 14.898438 2.808594 L 21 2.808594 L 21 9.792969 L 14.898438 9.792969 Z M 14.898438 2.808594 " clip-rule="nonzero"/></clipPath><clipPath id="a1ab0548ba"><path d="M 20.992188 4.230469 L 17.964844 2.863281 L 14.941406 4.230469 L 14.941406 9.78125 L 17.964844 8.414062 L 20.992188 9.78125 Z M 20.992188 4.230469 " clip-rule="nonzero"/></clipPath><clipPath id="006c4fac43"><path d="M 0.898438 0.808594 L 7 0.808594 L 7 7.792969 L 0.898438 7.792969 Z M 0.898438 0.808594 " clip-rule="nonzero"/></clipPath><clipPath id="f26f058fd0"><path d="M 6.992188 2.230469 L 3.964844 0.863281 L 0.941406 2.230469 L 0.941406 7.78125 L 3.964844 6.414062 L 6.992188 7.78125 Z M 6.992188 2.230469 " clip-rule="nonzero"/></clipPath><clipPath id="dec7b74633"><rect x="0" width="7" y="0" height="8"/></clipPath><clipPath id="8381e2974f"><path d="M 2.792969 2.808594 L 5.402344 2.808594 L 5.402344 9.792969 L 2.792969 9.792969 Z M 2.792969 2.808594 " clip-rule="nonzero"/></clipPath><clipPath id="2d26796d34"><path d="M 2.847656 4.230469 L 2.847656 9.78125 L 5.335938 2.867188 Z M 2.847656 4.230469 " clip-rule="nonzero"/></clipPath><clipPath id="be5d60eaa1"><path d="M 0.792969 0.867188 L 3.402344 0.867188 L 3.402344 7.792969 L 0.792969 7.792969 Z M 0.792969 0.867188 " clip-rule="nonzero"/></clipPath><clipPath id="1a0d71456f"><path d="M 0.847656 2.230469 L 0.847656 7.78125 L 3.335938 0.867188 Z M 0.847656 2.230469 " clip-rule="nonzero"/></clipPath><clipPath id="9db761e0ca"><rect x="0" width="4" y="0" height="8"/></clipPath><clipPath id="b7893f1ede"><path d="M 6.332031 2.808594 L 8.9375 2.808594 L 8.9375 9.792969 L 6.332031 9.792969 Z M 6.332031 2.808594 " clip-rule="nonzero"/></clipPath><clipPath id="f8bbb6eb92"><path d="M 6.40625 2.867188 L 8.894531 9.789062 L 8.894531 4.230469 Z M 6.40625 2.867188 " clip-rule="nonzero"/></clipPath><clipPath id="afa4e38c44"><path d="M 0.332031 0.867188 L 2.9375 0.867188 L 2.9375 7.792969 L 0.332031 7.792969 Z M 0.332031 0.867188 " clip-rule="nonzero"/></clipPath><clipPath id="97ee04d548"><path d="M 0.40625 0.867188 L 2.894531 7.789062 L 2.894531 2.230469 Z M 0.40625 0.867188 " clip-rule="nonzero"/></clipPath><clipPath id="44a6b0cedc"><rect x="0" width="3" y="0" height="8"/></clipPath><clipPath id="ebfbb68bda"><path d="M 2.792969 2.808594 L 5.402344 2.808594 L 5.402344 9.792969 L 2.792969 9.792969 Z M 2.792969 2.808594 " clip-rule="nonzero"/></clipPath><clipPath id="8cb387aac0"><path d="M 5.359375 2.863281 L 5.359375 8.421875 L 2.847656 9.78125 L 5.335938 2.867188 Z M 5.359375 2.863281 " clip-rule="nonzero"/></clipPath><clipPath id="d235f57066"><path d="M 0.792969 0.808594 L 3.402344 0.808594 L 3.402344 7.792969 L 0.792969 7.792969 Z M 0.792969 0.808594 " clip-rule="nonzero"/></clipPath><clipPath id="2649b11b1d"><path d="M 3.359375 0.863281 L 3.359375 6.421875 L 0.847656 7.78125 L 3.335938 0.867188 Z M 3.359375 0.863281 " clip-rule="nonzero"/></clipPath><clipPath id="c9ec7d55e5"><rect x="0" width="4" y="0" height="8"/></clipPath><clipPath id="44551bcaa6"><path d="M 6.332031 2.808594 L 8.9375 2.808594 L 8.9375 9.792969 L 6.332031 9.792969 Z M 6.332031 2.808594 " clip-rule="nonzero"/></clipPath><clipPath id="0673bc831d"><path d="M 8.894531 9.78125 L 6.382812 8.414062 L 6.382812 2.863281 L 6.402344 2.867188 Z M 8.894531 9.78125 " clip-rule="nonzero"/></clipPath><clipPath id="aa8ed55af1"><path d="M 0.332031 0.808594 L 2.9375 0.808594 L 2.9375 7.792969 L 0.332031 7.792969 Z M 0.332031 0.808594 " clip-rule="nonzero"/></clipPath><clipPath id="3550965a05"><path d="M 2.894531 7.78125 L 0.382812 6.414062 L 0.382812 0.863281 L 0.402344 0.867188 Z M 2.894531 7.78125 " clip-rule="nonzero"/></clipPath><clipPath id="ea72c2e2bd"><rect x="0" width="3" y="0" height="8"/></clipPath><clipPath id="a1190979b7"><path d="M 2.792969 12.304688 L 14.992188 12.304688 L 14.992188 24.222656 L 2.792969 24.222656 Z M 2.792969 12.304688 " clip-rule="nonzero"/></clipPath><clipPath id="f1aed8ccb3"><path d="M 8.894531 17.359375 L 8.894531 12.328125 L 2.847656 12.328125 L 2.847656 18.140625 C 2.847656 21.460938 5.539062 24.15625 8.859375 24.15625 L 14.941406 24.15625 L 14.941406 18.105469 L 9.648438 18.105469 C 9.230469 18.105469 8.894531 17.769531 8.894531 17.355469 " clip-rule="nonzero"/></clipPath><clipPath id="53265f03f6"><path d="M 0.792969 0.304688 L 12.96875 0.304688 L 12.96875 12.222656 L 0.792969 12.222656 Z M 0.792969 0.304688 " clip-rule="nonzero"/></clipPath><clipPath id="41bdb734bb"><path d="M 6.894531 5.359375 L 6.894531 0.328125 L 0.847656 0.328125 L 0.847656 6.140625 C 0.847656 9.460938 3.539062 12.15625 6.859375 12.15625 L 12.941406 12.15625 L 12.941406 6.105469 L 7.648438 6.105469 C 7.230469 6.105469 6.894531 5.769531 6.894531 5.355469 " clip-rule="nonzero"/></clipPath><clipPath id="74442a4702"><rect x="0" width="13" y="0" height="13"/></clipPath></defs><g clip-path="url(#2764b56b48)"><path fill="#ffffff" d="M 0 0.015625 L 24.503906 0.015625 L 24.503906 27.488281 L 0 27.488281 Z M 0 0.015625 " fill-opacity="1" fill-rule="nonzero"/></g><g clip-path="url(#bb60b8f8f8)"><g clip-path="url(#db33061a31)"><g transform="matrix(1, 0, 0, 1, 14, 11)"><g clip-path="url(#90ccfbbd82)"><g clip-path="url(#1ca23fe163)"><g clip-path="url(#36e7efb070)"><rect x="-19.445" width="35.64" fill="#ffffff" height="39.959999" y="-17.105" fill-opacity="1"/></g></g></g></g></g></g><g clip-path="url(#819d9f52e2)"><g clip-path="url(#a1ab0548ba)"><g transform="matrix(1, 0, 0, 1, 14, 2)"><g clip-path="url(#dec7b74633)"><g clip-path="url(#006c4fac43)"><g clip-path="url(#f26f058fd0)"><rect x="-19.445" width="35.64" fill="#ffffff" height="39.959999" y="-8.105" fill-opacity="1"/></g></g></g></g></g></g><g clip-path="url(#8381e2974f)"><g clip-path="url(#2d26796d34)"><g transform="matrix(1, 0, 0, 1, 2, 2)"><g clip-path="url(#9db761e0ca)"><g clip-path="url(#be5d60eaa1)"><g clip-path="url(#1a0d71456f)"><rect x="-7.445" width="35.64" fill="#ffffff" height="39.959999" y="-8.105" fill-opacity="1"/></g></g></g></g></g></g><g clip-path="url(#b7893f1ede)"><g clip-path="url(#f8bbb6eb92)"><g transform="matrix(1, 0, 0, 1, 6, 2)"><g clip-path="url(#44a6b0cedc)"><g clip-path="url(#afa4e38c44)"><g clip-path="url(#97ee04d548)"><rect x="-11.445" width="35.64" fill="#ffffff" height="39.959999" y="-8.105" fill-opacity="1"/></g></g></g></g></g></g><g clip-path="url(#ebfbb68bda)"><g clip-path="url(#8cb387aac0)"><g transform="matrix(1, 0, 0, 1, 2, 2)"><g clip-path="url(#c9ec7d55e5)"><g clip-path="url(#d235f57066)"><g clip-path="url(#2649b11b1d)"><rect x="-7.445" width="35.64" fill="#fcb625" height="39.959999" y="-8.105" fill-opacity="1"/></g></g></g></g></g></g><g clip-path="url(#44551bcaa6)"><g clip-path="url(#0673bc831d)"><g transform="matrix(1, 0, 0, 1, 6, 2)"><g clip-path="url(#ea72c2e2bd)"><g clip-path="url(#aa8ed55af1)"><g clip-path="url(#3550965a05)"><rect x="-11.445" width="35.64" fill="#fcb625" height="39.959999" y="-8.105" fill-opacity="1"/></g></g></g></g></g></g><g clip-path="url(#a1190979b7)"><g clip-path="url(#f1aed8ccb3)"><g transform="matrix(1, 0, 0, 1, 2, 12)"><g clip-path="url(#74442a4702)"><g clip-path="url(#53265f03f6)"><g clip-path="url(#41bdb734bb)"><rect x="-7.445" width="35.64" fill="#ffffff" height="39.959999" y="-18.105" fill-opacity="1"/></g></g></g></g></g></g></svg>